STARTFONT 2.1
COMMENT
COMMENT Converted from OpenType font "UbuntuMono-Bold.ttf" by "otf2bdf 3.0".
COMMENT
FONT -FreeType-ubuntu mono cp1252-Bold-R-Normal--42-300-100-100-P-165-ISO10646-1
SIZE 30 100 100
FONTBOUNDINGBOX 21 44 0 -8
STARTPROPERTIES 19
FOUNDRY "FreeType"
FAMILY_NAME "ubuntu mono cp1252"
WEIGHT_NAME "Bold"
SLANT "R"
SETWIDTH_NAME "Normal"
ADD_STYLE_NAME ""
PIXEL_SIZE 42
POINT_SIZE 300
RESOLUTION_X 100
RESOLUTION_Y 100
SPACING "P"
AVERAGE_WIDTH 165
CHARSET_REGISTRY "ISO10646"
CHARSET_ENCODING "1"
FONT_ASCENT 34
FONT_DESCENT 7
COPYRIGHT "Copyright 2011 Canonical Ltd.  Licensed under the Ubuntu Font Licence 1.0"
_OTF_FONTFILE "UbuntuMono-Bold.ttf"
_OTF_PSNAME "UbuntuMono-Bold"
ENDPROPERTIES
CHARS 223
STARTCHAR 0000
ENCODING 157
SWIDTH 504 0
DWIDTH 21 0
BBX 0 0 0 0
BITMAP
ENDCHAR
STARTCHAR 0008
ENCODING 8
SWIDTH 504 0
DWIDTH 21 0
BBX 0 0 0 0
BITMAP
ENDCHAR
STARTCHAR 0009
ENCODING 9
SWIDTH 504 0
DWIDTH 21 0
BBX 0 0 0 0
BITMAP
ENDCHAR
STARTCHAR 000D
ENCODING 13
SWIDTH 504 0
DWIDTH 21 0
BBX 0 0 0 0
BITMAP
ENDCHAR
STARTCHAR 001D
ENCODING 29
SWIDTH 504 0
DWIDTH 21 0
BBX 0 0 0 0
BITMAP
ENDCHAR
STARTCHAR 0020
ENCODING 32
SWIDTH 504 0
DWIDTH 21 0
BBX 0 0 0 0
BITMAP
ENDCHAR
STARTCHAR 0021
ENCODING 33
SWIDTH 504 0
DWIDTH 21 0
BBX 7 27 7 -1
BITMAP
7C
7C
7C
7C
7C
7C
7C
7C
7C
7C
7C
7C
7C
7C
7C
7C
7C
7C
00
00
00
38
FE
FE
FE
FE
38
ENDCHAR
STARTCHAR 0022
ENCODING 34
SWIDTH 504 0
DWIDTH 21 0
BBX 13 12 4 17
BITMAP
F8F8
F8F8
F8F8
F8F8
F8F8
F8F8
F8F8
F8F8
F878
F078
7070
7070
ENDCHAR
STARTCHAR 0023
ENCODING 35
SWIDTH 504 0
DWIDTH 21 0
BBX 19 26 1 0
BITMAP
03C3C0
03C7C0
03C780
07C780
078780
078F80
FFFFE0
FFFFE0
FFFFE0
FFFFE0
0F1F00
0F1F00
0F1E00
1F1E00
1F1E00
1E1E00
FFFFE0
FFFFE0
FFFFE0
FFFFE0
3C3C00
3C3C00
3C7C00
3C7800
7C7800
787800
ENDCHAR
STARTCHAR 0024
ENCODING 36
SWIDTH 504 0
DWIDTH 21 0
BBX 18 33 2 -4
BITMAP
03E000
03E000
03E000
03E000
07FE00
1FFF80
3FFF00
7FFF00
7E0700
FC0000
FC0000
FC0000
FE0000
7F8000
7FE000
3FF800
1FFE00
07FF00
00FF80
003F80
000F80
000FC0
000FC0
000F80
701F80
FFFF80
FFFF00
FFFC00
1FE000
03E000
03E000
03E000
03E000
ENDCHAR
STARTCHAR 0025
ENCODING 37
SWIDTH 504 0
DWIDTH 21 0
BBX 21 28 0 -1
BITMAP
1E0000
3F0078
7F80F0
7380E0
73C1E0
F3C3C0
F3C380
F3C780
73CF00
738E00
7F9E00
3F3C00
1E3800
007800
00F000
00E3C0
01EFE0
03CFF0
039E70
079E70
0F1E78
0E1C78
1E1E78
3C1E70
381E70
780FF0
F00FE0
0003C0
ENDCHAR
STARTCHAR 0026
ENCODING 38
SWIDTH 504 0
DWIDTH 21 0
BBX 19 27 1 0
BITMAP
03E000
0FF800
1FFC00
3FFC00
3E3E00
3C3E00
3C3E00
3C3E00
3E7C00
3EFC00
1FF800
1FF000
0FE380
1FC3C0
3FE3C0
7FF3C0
7DFBC0
F8FFC0
F07F80
F03F80
F03F00
F81F80
FC3F80
7FFFC0
7FFFC0
3FF3E0
0FC3E0
ENDCHAR
STARTCHAR 0027
ENCODING 39
SWIDTH 504 0
DWIDTH 21 0
BBX 5 13 8 16
BITMAP
F8
F8
F8
F8
F8
F8
F8
F8
F8
F8
78
70
70
ENDCHAR
STARTCHAR 0028
ENCODING 40
SWIDTH 504 0
DWIDTH 21 0
BBX 13 37 4 -7
BITMAP
0030
0070
01F8
03F8
07E0
0FC0
0F80
1F00
3F00
3E00
7E00
7C00
7C00
7800
F800
F800
F800
F800
F800
F800
F800
F800
F800
F800
7C00
7C00
7C00
3E00
3F00
1F00
1F80
0FC0
07E0
03F8
01F8
0070
0020
ENDCHAR
STARTCHAR 0029
ENCODING 41
SWIDTH 504 0
DWIDTH 21 0
BBX 13 37 4 -7
BITMAP
2000
7000
FC00
FE00
3F00
1F80
0F80
07C0
07E0
03E0
01F0
01F0
01F0
00F8
00F8
00F8
00F8
00F8
00F8
00F8
00F8
00F8
00F8
00F8
01F0
01F0
01F0
03E0
07E0
07C0
0FC0
1F80
3F00
FE00
FC00
7800
2000
ENDCHAR
STARTCHAR 002A
ENCODING 42
SWIDTH 504 0
DWIDTH 21 0
BBX 17 16 2 10
BITMAP
03E000
03E000
03E000
03E000
61E300
79CF00
7FDF80
FFFF80
FFFF80
03E000
077800
1F7C00
3F7E00
3E3E00
1E3C00
041000
ENDCHAR
STARTCHAR 002B
ENCODING 43
SWIDTH 504 0
DWIDTH 21 0
BBX 17 18 2 2
BITMAP
03E000
03E000
03E000
03E000
03E000
03E000
03E000
FFFF80
FFFF80
FFFF80
FFFF80
03E000
03E000
03E000
03E000
03E000
03E000
03E000
ENDCHAR
STARTCHAR 002C
ENCODING 44
SWIDTH 504 0
DWIDTH 21 0
BBX 10 15 5 -8
BITMAP
0F00
1F80
3F80
3F80
3FC0
3FC0
1F80
0F80
0780
0780
0F00
3E00
FC00
7800
6000
ENDCHAR
STARTCHAR 002D
ENCODING 45
SWIDTH 504 0
DWIDTH 21 0
BBX 11 5 5 8
BITMAP
FFE0
FFE0
FFE0
FFE0
FFE0
ENDCHAR
STARTCHAR 002E
ENCODING 46
SWIDTH 504 0
DWIDTH 21 0
BBX 7 8 7 -1
BITMAP
38
7E
FE
FE
FE
FE
7E
38
ENDCHAR
STARTCHAR 002F
ENCODING 47
SWIDTH 504 0
DWIDTH 21 0
BBX 17 36 2 -7
BITMAP
000F80
001F80
001F00
001F00
003F00
003E00
003E00
007E00
007C00
007C00
00FC00
00F800
00F800
01F800
01F000
01F000
03F000
03E000
03E000
07E000
07C000
07C000
0FC000
0F8000
0F8000
1F8000
1F0000
1F0000
3F0000
3E0000
3E0000
7E0000
7E0000
7C0000
FC0000
FC0000
ENDCHAR
STARTCHAR 0030
ENCODING 48
SWIDTH 504 0
DWIDTH 21 0
BBX 19 28 1 -1
BITMAP
01F800
07FC00
0FFE00
1FFF00
3F1F80
3E0F80
7C07C0
7C07C0
7C07C0
7803C0
7803C0
78E3C0
F9F3C0
F9F3E0
F9F3E0
F9F3E0
78E3C0
7803C0
7803C0
7C07C0
7C07C0
7C07C0
3E0F80
3F1F80
1FFF00
0FFE00
07FC00
03F800
ENDCHAR
STARTCHAR 0031
ENCODING 49
SWIDTH 504 0
DWIDTH 21 0
BBX 17 26 2 0
BITMAP
00F000
01F000
03F000
0FF000
3FF000
FFF000
FFF000
7FF000
79F000
21F000
01F000
01F000
01F000
01F000
01F000
01F000
01F000
01F000
01F000
01F000
01F000
01F000
7FFF80
7FFF80
7FFF80
7FFF80
ENDCHAR
STARTCHAR 0032
ENCODING 50
SWIDTH 504 0
DWIDTH 21 0
BBX 17 27 2 0
BITMAP
07E000
3FF800
7FFC00
FFFE00
787F00
303F00
001F00
001F00
001F00
003F00
003F00
007E00
00FE00
01FC00
03F800
07F000
0FE000
1FC000
3F8000
3F0000
7E0000
7E0000
7C0000
FFFF80
FFFF80
FFFF80
FFFF80
ENDCHAR
STARTCHAR 0033
ENCODING 51
SWIDTH 504 0
DWIDTH 21 0
BBX 17 28 2 -1
BITMAP
0FE000
7FF800
FFFC00
7FFE00
787E00
003F00
001F00
001F00
001F00
003E00
007E00
0FFC00
0FF800
0FFC00
0FFE00
007F00
001F00
001F80
000F80
000F80
000F80
001F80
001F00
607F00
FFFE00
FFFE00
FFF800
1FE000
ENDCHAR
STARTCHAR 0034
ENCODING 52
SWIDTH 504 0
DWIDTH 21 0
BBX 19 26 1 0
BITMAP
001F00
003F00
007F00
00FF00
00FF00
01FF00
03FF00
07DF00
07DF00
0F9F00
0F1F00
1F1F00
3E1F00
3C1F00
7C1F00
781F00
FFFFE0
FFFFE0
FFFFE0
FFFFE0
001F00
001F00
001F00
001F00
001F00
001F00
ENDCHAR
STARTCHAR 0035
ENCODING 53
SWIDTH 504 0
DWIDTH 21 0
BBX 17 27 2 -1
BITMAP
3FFF00
3FFF00
3FFF00
3FFF00
3E0000
3E0000
3E0000
3E0000
3E0000
3FC000
3FF800
3FFC00
3FFE00
01FF00
003F00
001F00
001F80
001F80
001F80
001F80
001F80
001F00
C07F00
FFFE00
FFFC00
FFF800
3FC000
ENDCHAR
STARTCHAR 0036
ENCODING 54
SWIDTH 504 0
DWIDTH 21 0
BBX 17 27 2 -1
BITMAP
001F00
00FF00
03FF00
07FF00
0FF000
1FC000
3F0000
3E0000
7E0000
7C0000
7FF800
FFFE00
FFFE00
FFFF00
F81F80
F80F80
F80F80
F80F80
F80F80
F80F80
FC0F80
7C1F80
7E3F00
3FFF00
3FFE00
0FFC00
03F000
ENDCHAR
STARTCHAR 0037
ENCODING 55
SWIDTH 504 0
DWIDTH 21 0
BBX 17 26 2 0
BITMAP
FFFF80
FFFF80
FFFF80
FFFF80
001F80
003F00
003E00
007E00
007C00
00FC00
00F800
01F800
01F000
01F000
03E000
03E000
07E000
07C000
07C000
07C000
0FC000
0F8000
0F8000
0F8000
0F8000
0F8000
ENDCHAR
STARTCHAR 0038
ENCODING 56
SWIDTH 504 0
DWIDTH 21 0
BBX 17 28 2 -1
BITMAP
07F000
1FFC00
3FFE00
7FFF00
7E3F00
7C1F80
F80F80
F80F80
F80F80
FC1F00
7E1F00
7F3F00
3FFE00
1FFC00
1FFC00
3FFE00
7CFF00
F83F80
F80F80
F80F80
F00F80
F80F80
F80F80
FC1F80
7FFF00
7FFF00
1FFC00
07F000
ENDCHAR
STARTCHAR 0039
ENCODING 57
SWIDTH 504 0
DWIDTH 21 0
BBX 17 27 2 0
BITMAP
07E000
1FF800
3FFC00
3FFE00
7E3F00
7C1F00
F81F80
F80F80
F80F80
F80F80
F80F80
F80F80
FC0F80
7FFF80
3FFF80
3FFF80
0FFF80
001F00
003F00
003E00
007E00
01FC00
07F800
3FF000
3FE000
3F8000
3C0000
ENDCHAR
STARTCHAR 003A
ENCODING 58
SWIDTH 504 0
DWIDTH 21 0
BBX 7 21 7 -1
BITMAP
38
7E
FE
FE
FE
FE
7E
38
00
00
00
00
00
38
7E
FE
FE
FE
FE
7E
38
ENDCHAR
STARTCHAR 003B
ENCODING 59
SWIDTH 504 0
DWIDTH 21 0
BBX 9 28 5 -8
BITMAP
0E00
1F80
3F80
3F80
3F80
3F80
1F80
0E00
0000
0000
0000
0000
0000
0E00
3F00
3F80
3F80
3F80
3F80
3F80
0F80
0780
0F00
0F00
3E00
FC00
F800
6000
ENDCHAR
STARTCHAR 003C
ENCODING 60
SWIDTH 504 0
DWIDTH 21 0
BBX 17 18 2 2
BITMAP
000100
000F80
003F80
00FF80
07FF80
1FFE00
FFF000
FFC000
FE0000
FE0000
FFC000
FFF000
1FFE00
07FF80
00FF80
003F80
000F80
000100
ENDCHAR
STARTCHAR 003D
ENCODING 61
SWIDTH 504 0
DWIDTH 21 0
BBX 17 12 2 5
BITMAP
FFFF80
FFFF80
FFFF80
FFFF80
000000
000000
000000
000000
FFFF80
FFFF80
FFFF80
FFFF80
ENDCHAR
STARTCHAR 003E
ENCODING 62
SWIDTH 504 0
DWIDTH 21 0
BBX 17 18 2 2
BITMAP
400000
780000
FE0000
FFC000
FFF000
3FFC00
07FF80
00FF80
003F80
003F80
00FF80
07FF80
3FFC00
FFF000
FFC000
FE0000
780000
400000
ENDCHAR
STARTCHAR 003F
ENCODING 63
SWIDTH 504 0
DWIDTH 21 0
BBX 15 28 3 -1
BITMAP
1FE0
FFF8
FFFC
7FFC
70FE
007E
003E
003E
007E
007E
00FC
01FC
03F8
07F0
07E0
0FC0
0FC0
0F80
0F80
0000
0000
0000
0780
0FC0
1FC0
1FC0
0FC0
0780
ENDCHAR
STARTCHAR 0040
ENCODING 64
SWIDTH 504 0
DWIDTH 21 0
BBX 19 33 1 -6
BITMAP
01F800
07FE00
0FFF00
1F0F80
3E03C0
3C03C0
7803C0
783FE0
78FFE0
F1FFE0
F1FFE0
F3F3E0
F3E3E0
F3E3E0
F3C3E0
F3C3E0
F3C3E0
F3C3E0
F3E3E0
F3E3E0
F1F3E0
F1FFE0
F0FFE0
F07FE0
783FE0
780000
380000
3C0000
1E0000
1F8080
0FFFC0
03FFC0
00FFC0
ENDCHAR
STARTCHAR 0041
ENCODING 65
SWIDTH 504 0
DWIDTH 21 0
BBX 21 26 0 0
BITMAP
00FC00
01FC00
01FC00
01FC00
03FE00
03DE00
03DE00
07DF00
07DF00
078F00
078F80
0F8F80
0F8F80
0F0780
1F07C0
1F07C0
1FFFC0
1FFFE0
3FFFE0
3FFFE0
3E03E0
7E03F0
7C03F0
7C01F0
7C01F0
FC01F8
ENDCHAR
STARTCHAR 0042
ENCODING 66
SWIDTH 504 0
DWIDTH 21 0
BBX 18 28 2 -1
BITMAP
7FE000
FFFC00
FFFE00
FFFF00
F83F00
F81F00
F81F00
F81F00
F81F00
F81F00
F81F00
F83E00
FFFC00
FFF800
FFFE00
FFFF00
F81F80
F80F80
F80FC0
F807C0
F807C0
F80FC0
F80F80
F81F80
FFFF00
FFFF00
FFFC00
3FF000
ENDCHAR
STARTCHAR 0043
ENCODING 67
SWIDTH 504 0
DWIDTH 21 0
BBX 19 28 1 -1
BITMAP
00FE00
03FFC0
07FFC0
0FFFC0
1F81C0
3F0040
3E0000
7E0000
7C0000
7C0000
FC0000
FC0000
F80000
F80000
F80000
F80000
FC0000
FC0000
7C0000
7C0000
7C0000
7E0000
3F0040
3F81C0
1FFFC0
0FFFE0
07FFC0
00FE00
ENDCHAR
STARTCHAR 0044
ENCODING 68
SWIDTH 504 0
DWIDTH 21 0
BBX 18 27 2 -1
BITMAP
7FC000
FFF800
FFFC00
FFFE00
F87F00
F81F00
F81F80
F80F80
F80F80
F80FC0
F80FC0
F807C0
F807C0
F807C0
F807C0
F807C0
F80FC0
F80FC0
F80F80
F80F80
F81F80
F83F00
F87F00
FFFE00
FFFC00
FFF000
7FC000
ENDCHAR
STARTCHAR 0045
ENCODING 69
SWIDTH 504 0
DWIDTH 21 0
BBX 16 26 3 0
BITMAP
FFFE
FFFE
FFFE
FFFE
F800
F800
F800
F800
F800
F800
F800
FFFC
FFFC
FFFC
FFFC
F800
F800
F800
F800
F800
F800
F800
FFFF
FFFF
FFFF
FFFF
ENDCHAR
STARTCHAR 0046
ENCODING 70
SWIDTH 504 0
DWIDTH 21 0
BBX 16 26 3 0
BITMAP
FFFF
FFFF
FFFF
FFFF
F800
F800
F800
F800
F800
F800
F800
FFFC
FFFC
FFFC
FFFC
F800
F800
F800
F800
F800
F800
F800
F800
F800
F800
F800
ENDCHAR
STARTCHAR 0047
ENCODING 71
SWIDTH 504 0
DWIDTH 21 0
BBX 18 28 1 -1
BITMAP
00FF80
03FFC0
0FFFC0
1FFFC0
1FC1C0
3F0080
3E0000
7E0000
7C0000
7C0000
FC0000
FC0000
F80000
F807C0
F807C0
F807C0
F807C0
FC07C0
7C07C0
7C07C0
7C07C0
7E07C0
3F07C0
3F87C0
1FFFC0
0FFFC0
07FFC0
01FF00
ENDCHAR
STARTCHAR 0048
ENCODING 72
SWIDTH 504 0
DWIDTH 21 0
BBX 17 26 2 0
BITMAP
F80F80
F80F80
F80F80
F80F80
F80F80
F80F80
F80F80
F80F80
F80F80
F80F80
F80F80
FFFF80
FFFF80
FFFF80
FFFF80
F80F80
F80F80
F80F80
F80F80
F80F80
F80F80
F80F80
F80F80
F80F80
F80F80
F80F80
ENDCHAR
STARTCHAR 0049
ENCODING 73
SWIDTH 504 0
DWIDTH 21 0
BBX 17 26 2 0
BITMAP
FFFF80
FFFF80
FFFF80
FFFF80
03E000
03E000
03E000
03E000
03E000
03E000
03E000
03E000
03E000
03E000
03E000
03E000
03E000
03E000
03E000
03E000
03E000
03E000
FFFF80
FFFF80
FFFF80
FFFF80
ENDCHAR
STARTCHAR 004A
ENCODING 74
SWIDTH 504 0
DWIDTH 21 0
BBX 16 27 2 -1
BITMAP
3FFF
3FFF
3FFF
3FFF
001F
001F
001F
001F
001F
001F
001F
001F
001F
001F
001F
001F
001F
001F
001F
001F
001F
603F
707E
FFFE
FFFC
7FF8
1FE0
ENDCHAR
STARTCHAR 004B
ENCODING 75
SWIDTH 504 0
DWIDTH 21 0
BBX 18 26 2 0
BITMAP
F80F80
F81F80
F81F00
F83F00
F87E00
F87C00
F8FC00
F9F800
F9F000
FBF000
FFE000
FFC000
FFC000
FFE000
FFF000
FBF800
F9FC00
F8FC00
F87E00
F87F00
F83F00
F81F80
F81F80
F80FC0
F80FC0
F807C0
ENDCHAR
STARTCHAR 004C
ENCODING 76
SWIDTH 504 0
DWIDTH 21 0
BBX 16 26 3 0
BITMAP
F800
F800
F800
F800
F800
F800
F800
F800
F800
F800
F800
F800
F800
F800
F800
F800
F800
F800
F800
F800
F800
F800
FFFF
FFFF
FFFF
FFFF
ENDCHAR
STARTCHAR 004D
ENCODING 77
SWIDTH 504 0
DWIDTH 21 0
BBX 19 26 1 0
BITMAP
7C07C0
7C07C0
7E0FC0
7E0FC0
7E0FC0
7F1FC0
7F1DC0
7F1DC0
7F3FC0
7FBFC0
7BBBC0
7BFBC0
7BFBC0
F9F3E0
F9F3E0
F9F3E0
F9E3E0
F803E0
F803E0
F803E0
F803E0
F803E0
F803E0
F803E0
F803E0
F803E0
ENDCHAR
STARTCHAR 004E
ENCODING 78
SWIDTH 504 0
DWIDTH 21 0
BBX 17 26 2 0
BITMAP
F00F80
F80F80
FC0F80
FC0F80
FE0F80
FE0F80
FF0F80
FF0F80
FF8F80
FF8F80
FBCF80
FBCF80
F9EF80
F9EF80
F8FF80
F8FF80
F87F80
F87F80
F83F80
F83F80
F81F80
F81F80
F81F80
F80F80
F80F80
F80780
ENDCHAR
STARTCHAR 004F
ENCODING 79
SWIDTH 504 0
DWIDTH 21 0
BBX 19 28 1 -1
BITMAP
03F800
07FE00
1FFF00
1FFF00
3F1F80
3E0FC0
7C07C0
7C07C0
7C07C0
FC07E0
FC07E0
F803E0
F803E0
F803E0
F803E0
F803E0
F803E0
F807E0
FC07E0
7C07C0
7C07C0
7C07C0
7E0FC0
3F1F80
1FFF00
1FFF00
0FFE00
03F800
ENDCHAR
STARTCHAR 0050
ENCODING 80
SWIDTH 504 0
DWIDTH 21 0
BBX 18 27 2 0
BITMAP
3FF000
FFFC00
FFFF00
FFFF00
F83F80
F80F80
F80FC0
F80FC0
F807C0
F80FC0
F80FC0
F80FC0
F80F80
FE3F80
FFFF00
FFFF00
FFFC00
FFF000
F80000
F80000
F80000
F80000
F80000
F80000
F80000
F80000
F80000
ENDCHAR
STARTCHAR 0051
ENCODING 81
SWIDTH 504 0
DWIDTH 21 0
BBX 19 35 1 -8
BITMAP
03F800
07FE00
1FFF00
1FFF00
3F1F80
3E0F80
7C07C0
7C07C0
7C07C0
FC07E0
FC07E0
F803E0
F803E0
F803E0
F803E0
F803E0
F803E0
F807E0
FC07E0
7C07C0
7C07C0
7C07C0
7E0FC0
3F1F80
3FFF80
1FFF00
0FFE00
03F800
01F000
00F800
00FF00
007FE0
003FC0
000FC0
0001C0
ENDCHAR
STARTCHAR 0052
ENCODING 82
SWIDTH 504 0
DWIDTH 21 0
BBX 18 27 2 0
BITMAP
3FE000
FFF800
FFFE00
FFFE00
F87F00
F81F00
F81F80
F81F80
F80F80
F81F80
F81F80
F81F00
F87F00
FFFF00
FFFE00
FFF800
FFF800
F8FC00
F87C00
F83E00
F83F00
F81F00
F81F80
F80F80
F80F80
F807C0
F807C0
ENDCHAR
STARTCHAR 0053
ENCODING 83
SWIDTH 504 0
DWIDTH 21 0
BBX 17 28 2 -1
BITMAP
07F800
1FFF00
3FFF00
7FFE00
7E0600
FC0000
F80000
F80000
F80000
FC0000
FE0000
7FC000
3FF000
1FFC00
0FFE00
01FF00
007F80
001F80
000F80
000F80
000F80
000F80
400F80
703F80
FFFF00
FFFE00
FFFC00
1FF000
ENDCHAR
STARTCHAR 0054
ENCODING 84
SWIDTH 504 0
DWIDTH 21 0
BBX 19 26 1 0
BITMAP
FFFFE0
FFFFE0
FFFFE0
FFFFE0
01F000
01F000
01F000
01F000
01F000
01F000
01F000
01F000
01F000
01F000
01F000
01F000
01F000
01F000
01F000
01F000
01F000
01F000
01F000
01F000
01F000
01F000
ENDCHAR
STARTCHAR 0055
ENCODING 85
SWIDTH 504 0
DWIDTH 21 0
BBX 17 27 2 -1
BITMAP
F80F80
F80F80
F80F80
F80F80
F80F80
F80F80
F80F80
F80F80
F80F80
F80F80
F80F80
F80F80
F80F80
F80F80
F80F80
F80F80
F80F80
F80F80
F80F80
F80F80
F80F80
FC0F80
FC1F00
7FFF00
3FFE00
1FFC00
07F000
ENDCHAR
STARTCHAR 0056
ENCODING 86
SWIDTH 504 0
DWIDTH 21 0
BBX 19 26 1 0
BITMAP
F803E0
F803E0
F803E0
FC07E0
7C07E0
7C07C0
7C07C0
7C07C0
3E0FC0
3E0F80
3E0F80
3E0F80
1E0F00
1F1F00
1F1F00
1F1F00
0F1E00
0FBE00
0FBE00
07BC00
07BC00
07FC00
03F800
03F800
03F800
01F000
ENDCHAR
STARTCHAR 0057
ENCODING 87
SWIDTH 504 0
DWIDTH 21 0
BBX 19 26 1 0
BITMAP
F803E0
F803E0
F803E0
F803E0
F803E0
F803E0
F803E0
F803E0
F803E0
F8E3E0
F9F3E0
F9F3E0
F9F3E0
FBFBC0
7BFBC0
73BBC0
73BBC0
779FC0
771FC0
771FC0
7F1FC0
7E0FC0
7E0FC0
7E0FC0
7C07C0
7C07C0
ENDCHAR
STARTCHAR 0058
ENCODING 88
SWIDTH 504 0
DWIDTH 21 0
BBX 19 26 1 0
BITMAP
FC03E0
7C07C0
7E07C0
3E0F80
3F0F80
1F1F00
1F9F00
0FBE00
07FC00
07FC00
03F800
03F800
01F800
03F800
07FC00
07FC00
0FBE00
0FBF00
1F1F00
1F1F80
3E0F80
3E0FC0
7E07C0
7C07E0
FC07E0
F803E0
ENDCHAR
STARTCHAR 0059
ENCODING 89
SWIDTH 504 0
DWIDTH 21 0
BBX 19 26 1 0
BITMAP
F803E0
FC03E0
FC07E0
7C07C0
7E07C0
3E0F80
3E0F80
1F1F80
1F1F00
1F9F00
0FBE00
0FBE00
07FC00
07FC00
03F800
01F000
01F000
01F000
01F000
01F000
01F000
01F000
01F000
01F000
01F000
01F000
ENDCHAR
STARTCHAR 005A
ENCODING 90
SWIDTH 504 0
DWIDTH 21 0
BBX 17 26 2 0
BITMAP
FFFF80
FFFF80
FFFF80
FFFF80
003F00
003F00
007E00
00FC00
00FC00
01F800
01F800
03F000
03E000
07E000
0FC000
0FC000
1F8000
1F0000
3F0000
3E0000
7E0000
7C0000
FFFF80
FFFF80
FFFF80
FFFF80
ENDCHAR
STARTCHAR 005B
ENCODING 91
SWIDTH 504 0
DWIDTH 21 0
BBX 11 36 5 -7
BITMAP
FFE0
FFE0
FFE0
FFE0
F800
F800
F800
F800
F800
F800
F800
F800
F800
F800
F800
F800
F800
F800
F800
F800
F800
F800
F800
F800
F800
F800
F800
F800
F800
F800
F800
F800
FFE0
FFE0
FFE0
FFE0
ENDCHAR
STARTCHAR 005C
ENCODING 92
SWIDTH 504 0
DWIDTH 21 0
BBX 17 36 2 -7
BITMAP
FC0000
7C0000
7C0000
7C0000
3E0000
3E0000
3E0000
3F0000
1F0000
1F0000
1F8000
0F8000
0F8000
0FC000
07C000
07C000
07E000
03E000
03E000
03F000
01F000
01F000
01F800
00F800
00F800
00FC00
007C00
007C00
007E00
003E00
003E00
003F00
001F00
001F00
001F80
000F80
ENDCHAR
STARTCHAR 005D
ENCODING 93
SWIDTH 504 0
DWIDTH 21 0
BBX 11 36 5 -7
BITMAP
FFE0
FFE0
FFE0
FFE0
03E0
03E0
03E0
03E0
03E0
03E0
03E0
03E0
03E0
03E0
03E0
03E0
03E0
03E0
03E0
03E0
03E0
03E0
03E0
03E0
03E0
03E0
03E0
03E0
03E0
03E0
03E0
03E0
FFE0
FFE0
FFE0
FFE0
ENDCHAR
STARTCHAR 005E
ENCODING 94
SWIDTH 504 0
DWIDTH 21 0
BBX 19 13 1 13
BITMAP
01F000
03F800
03FC00
07FC00
0FBE00
0F9F00
1F1F00
3F0F80
7E0FC0
7C07E0
FC07E0
7803E0
180100
ENDCHAR
STARTCHAR 005F
ENCODING 95
SWIDTH 504 0
DWIDTH 21 0
BBX 21 4 0 -7
BITMAP
FFFFF8
FFFFF8
FFFFF8
FFFFF8
ENDCHAR
STARTCHAR 0060
ENCODING 96
SWIDTH 504 0
DWIDTH 21 0
BBX 8 7 7 22
BITMAP
20
70
FC
FE
7F
1F
02
ENDCHAR
STARTCHAR 0061
ENCODING 97
SWIDTH 504 0
DWIDTH 21 0
BBX 17 22 2 -1
BITMAP
1FF000
3FFC00
3FFE00
3FFF00
203F00
001F00
001F00
001F00
000F80
0FFF80
3FFF80
7FFF80
FFFF80
FC0F80
F80F80
F80F80
F80F80
FC0F80
FFFF80
7FFF80
3FFF80
0FFC00
ENDCHAR
STARTCHAR 0062
ENCODING 98
SWIDTH 504 0
DWIDTH 21 0
BBX 17 31 3 -1
BITMAP
380000
F80000
F80000
F80000
F80000
F80000
F80000
F80000
F80000
FBF000
FFF800
FFFC00
FFFE00
FC7F00
F83F00
F81F00
F81F00
F81F80
F81F80
F81F80
F81F80
F81F80
F81F80
F81F00
F81F00
F83F00
F87E00
FFFE00
FFFC00
FFF800
3FE000
ENDCHAR
STARTCHAR 0063
ENCODING 99
SWIDTH 504 0
DWIDTH 21 0
BBX 17 22 2 -1
BITMAP
01FF00
07FF80
1FFF80
3FFF00
3F8100
7E0000
7C0000
FC0000
F80000
F80000
F80000
F80000
F80000
F80000
FC0000
7C0000
7E0000
7F8080
3FFF80
1FFF80
07FF80
01FF00
ENDCHAR
STARTCHAR 0064
ENCODING 100
SWIDTH 504 0
DWIDTH 21 0
BBX 17 31 1 -1
BITMAP
000380
000F80
000F80
000F80
000F80
000F80
000F80
000F80
000F80
07EF80
1FFF80
3FFF80
3FFF80
7E1F80
7C0F80
7C0F80
FC0F80
FC0F80
F80F80
F80F80
F80F80
F80F80
FC0F80
FC0F80
7C0F80
7E0F80
7F0F80
3FFF80
1FFF80
0FFF80
03FE00
ENDCHAR
STARTCHAR 0065
ENCODING 101
SWIDTH 504 0
DWIDTH 21 0
BBX 19 22 1 -1
BITMAP
01F800
07FE00
0FFF00
1FFF80
3F0F80
7E07C0
7C07C0
7C07C0
FC03C0
FFFFC0
FFFFE0
FFFFE0
FFFFC0
FC0000
7C0000
7C0000
7E0000
3F8180
1FFF80
1FFF80
07FF80
01FE00
ENDCHAR
STARTCHAR 0066
ENCODING 102
SWIDTH 504 0
DWIDTH 21 0
BBX 19 30 2 0
BITMAP
007F80
01FFE0
03FFC0
07FFC0
07E0C0
0FC000
0F8000
0F8000
0F8000
0F8000
FFFF80
FFFF80
FFFF80
FFFF80
0F8000
0F8000
0F8000
0F8000
0F8000
0F8000
0F8000
0F8000
0F8000
0F8000
0F8000
0F8000
0F8000
0F8000
0F8000
0F8000
ENDCHAR
STARTCHAR 0067
ENCODING 103
SWIDTH 504 0
DWIDTH 21 0
BBX 17 29 1 -8
BITMAP
01FE00
0FFF80
1FFF80
3FFF80
3F0F80
7E0F80
7C0F80
7C0F80
FC0F80
FC0F80
FC0F80
FC0F80
7C0F80
7C0F80
7C0F80
7E1F80
3FFF80
3FFF80
1FFF80
07EF80
000F80
000F80
000F80
001F80
303F00
7FFF00
7FFE00
7FFC00
1FE000
ENDCHAR
STARTCHAR 0068
ENCODING 104
SWIDTH 504 0
DWIDTH 21 0
BBX 16 30 3 0
BITMAP
3800
F800
F800
F800
F800
F800
F800
F800
F800
FFE0
FFF8
FFFC
FFFC
F87E
F83E
F83E
F83E
F83E
F83F
F83F
F83F
F83F
F83F
F83F
F83F
F83F
F83F
F83F
F83F
F83F
ENDCHAR
STARTCHAR 0069
ENCODING 105
SWIDTH 504 0
DWIDTH 21 0
BBX 18 30 2 -1
BITMAP
070000
0F8000
0FC000
1FC000
0FC000
0F8000
070000
000000
000000
FFC000
FFC000
FFC000
FFC000
07C000
07C000
07C000
07C000
07C000
07C000
07C000
07C000
07C000
07C000
07C000
07C000
07E080
03FF80
03FF80
01FFC0
007F00
ENDCHAR
STARTCHAR 006A
ENCODING 106
SWIDTH 504 0
DWIDTH 21 0
BBX 15 37 2 -8
BITMAP
0078
00FC
00FC
00FC
00FC
00FC
0078
0000
0000
3FFE
3FFE
3FFE
3FFE
003E
003E
003E
003E
003E
003E
003E
003E
003E
003E
003E
003E
003E
003E
003E
003E
003E
003E
407C
787C
7FFC
FFF8
7FF0
1FC0
ENDCHAR
STARTCHAR 006B
ENCODING 107
SWIDTH 504 0
DWIDTH 21 0
BBX 17 30 3 0
BITMAP
380000
F80000
F80000
F80000
F80000
F80000
F80000
F80000
F80000
F80000
F83F00
F83F00
F87E00
F8FC00
F8F800
F9F000
FBE000
FFC000
FF8000
FFC000
FFE000
FBF000
F9F000
F9F800
F8FC00
F87E00
F83E00
F83F00
F81F80
F81F80
ENDCHAR
STARTCHAR 006C
ENCODING 108
SWIDTH 504 0
DWIDTH 21 0
BBX 18 30 2 -1
BITMAP
FFC000
FFC000
FFC000
FFC000
07C000
07C000
07C000
07C000
07C000
07C000
07C000
07C000
07C000
07C000
07C000
07C000
07C000
07C000
07C000
07C000
07C000
07C000
07C000
07C000
07C000
07E080
03FF80
03FF80
01FFC0
007F00
ENDCHAR
STARTCHAR 006D
ENCODING 109
SWIDTH 504 0
DWIDTH 21 0
BBX 19 21 1 0
BITMAP
3F9F00
FFFF80
FFFFC0
FFFFC0
F1E3E0
F1E3E0
F1F1E0
F1F1E0
F1F1E0
F1F1E0
F1F1E0
F1F1E0
F1F1E0
F001E0
F001E0
F001E0
F001E0
F001E0
F001E0
F001E0
F001E0
ENDCHAR
STARTCHAR 006E
ENCODING 110
SWIDTH 504 0
DWIDTH 21 0
BBX 16 21 3 0
BITMAP
3FE0
FFF8
FFFC
FFFC
F87E
F83E
F83E
F83E
F83E
F83F
F83F
F83F
F83F
F83F
F83F
F83F
F83F
F83F
F83F
F83F
F83F
ENDCHAR
STARTCHAR 006F
ENCODING 111
SWIDTH 504 0
DWIDTH 21 0
BBX 19 22 1 -1
BITMAP
01F800
07FE00
1FFF00
3FFF80
3F1F80
7E0FC0
7C07C0
7C07C0
FC07E0
FC07E0
F803E0
F807E0
FC07E0
FC07E0
7C07C0
7C07C0
7E0FC0
3F1F80
3FFF80
1FFF00
0FFE00
03F800
ENDCHAR
STARTCHAR 0070
ENCODING 112
SWIDTH 504 0
DWIDTH 21 0
BBX 17 28 3 -7
BITMAP
3FE000
FFF800
FFFC00
FFFE00
F87E00
F83F00
F81F00
F81F00
F81F80
F81F80
F81F80
F81F80
F81F80
F81F80
F81F00
F81F00
F83F00
FC3E00
FFFE00
FFFC00
FFF800
FBF000
F80000
F80000
F80000
F80000
F80000
F80000
ENDCHAR
STARTCHAR 0071
ENCODING 113
SWIDTH 504 0
DWIDTH 21 0
BBX 17 28 1 -7
BITMAP
01FE00
0FFF80
1FFF80
3FFF80
3F0F80
7E0F80
7C0F80
7C0F80
FC0F80
FC0F80
FC0F80
FC0F80
FC0F80
FC0F80
7C0F80
7C0F80
7E0F80
7F1F80
3FFF80
1FFF80
0FFF80
07EF80
000F80
000F80
000F80
000F80
000F80
000F80
ENDCHAR
STARTCHAR 0072
ENCODING 114
SWIDTH 504 0
DWIDTH 21 0
BBX 15 21 4 0
BITMAP
0FFC
FFFE
FFFE
FFFE
F800
F800
F800
F800
F800
F800
F800
F800
F800
F800
F800
F800
F800
F800
F800
F800
F800
ENDCHAR
STARTCHAR 0073
ENCODING 115
SWIDTH 504 0
DWIDTH 21 0
BBX 17 22 2 -1
BITMAP
03FC00
1FFF00
3FFE00
3FFE00
7E0600
7C0000
7C0000
7E0000
7F8000
7FF000
3FFC00
1FFE00
07FF00
00FF00
003F00
001F80
001F80
701F00
7FFF00
FFFE00
FFFC00
1FF000
ENDCHAR
STARTCHAR 0074
ENCODING 116
SWIDTH 504 0
DWIDTH 21 0
BBX 18 27 2 -1
BITMAP
018000
0F8000
0F8000
0F8000
0F8000
0F8000
FFFF80
FFFF80
FFFF80
FFFF80
0F8000
0F8000
0F8000
0F8000
0F8000
0F8000
0F8000
0F8000
0F8000
0F8000
0F8000
0FC000
0FC080
07FF80
07FFC0
03FFC0
00FF00
ENDCHAR
STARTCHAR 0075
ENCODING 117
SWIDTH 504 0
DWIDTH 21 0
BBX 16 21 2 -1
BITMAP
FC1F
FC1F
FC1F
FC1F
FC1F
FC1F
FC1F
FC1F
FC1F
FC1F
FC1F
FC1F
FC1F
7C1F
7C1F
7C1F
7E1F
3FFF
3FFF
1FFF
07FC
ENDCHAR
STARTCHAR 0076
ENCODING 118
SWIDTH 504 0
DWIDTH 21 0
BBX 19 20 1 0
BITMAP
F803E0
F803E0
FC07E0
7C07C0
7C07C0
7E0FC0
3E0F80
3E0F80
3E1F80
1F1F00
1F1F00
1FBE00
0FBE00
0FFE00
07FC00
07FC00
07F800
03F800
03F000
01F000
ENDCHAR
STARTCHAR 0077
ENCODING 119
SWIDTH 504 0
DWIDTH 21 0
BBX 19 20 1 0
BITMAP
F001E0
F001E0
F001E0
F001E0
F0F1E0
F1F1E0
F1F1E0
F1F1E0
F1F1E0
F3F9C0
73F9C0
7BBBC0
7BBFC0
7FBFC0
7F1FC0
7F1F80
3F1F80
3E0F80
3E0F80
3E0F80
ENDCHAR
STARTCHAR 0078
ENCODING 120
SWIDTH 504 0
DWIDTH 21 0
BBX 19 20 1 0
BITMAP
FC07E0
7C07C0
3E0F80
3F1F80
1F9F00
0FBE00
07FE00
07FC00
03F800
01F800
03F800
07FC00
07FE00
0FBE00
1F3F00
1F1F80
3E0F80
7E0FC0
7C07C0
F803E0
ENDCHAR
STARTCHAR 0079
ENCODING 121
SWIDTH 504 0
DWIDTH 21 0
BBX 19 28 1 -8
BITMAP
7C07E0
7C07C0
7E07C0
7E07C0
3E07C0
3E0F80
3F0F80
1F0F80
1F0F80
1F9F00
0F9F00
0F9F00
0FFE00
07FE00
07FE00
07FC00
03FC00
03FC00
01F800
01F800
00F000
01F000
03F000
47E000
FFC000
FFC000
FF8000
FE0000
ENDCHAR
STARTCHAR 007A
ENCODING 122
SWIDTH 504 0
DWIDTH 21 0
BBX 15 20 3 0
BITMAP
FFFE
FFFE
FFFE
FFFE
00FC
01FC
01F8
03F0
07E0
0FE0
0FC0
1F80
3F00
3F00
7E00
7C00
FFFE
FFFE
FFFE
FFFE
ENDCHAR
STARTCHAR 007B
ENCODING 123
SWIDTH 504 0
DWIDTH 21 0
BBX 15 36 3 -7
BITMAP
00FE
03FE
07FE
07FE
0FC0
0F80
0F80
0F80
0F80
0F80
0F80
0F80
0F80
0F80
0F80
1F00
FF00
FC00
FC00
FF00
1F00
0F80
0F80
0F80
0F80
0F80
0F80
0F80
0F80
0F80
0F80
0FC0
07FE
07FE
03FE
00FE
ENDCHAR
STARTCHAR 007C
ENCODING 124
SWIDTH 504 0
DWIDTH 21 0
BBX 5 36 8 -7
BITMAP
F8
F8
F8
F8
F8
F8
F8
F8
F8
F8
F8
F8
F8
F8
F8
F8
F8
F8
F8
F8
F8
F8
F8
F8
F8
F8
F8
F8
F8
F8
F8
F8
F8
F8
F8
F8
ENDCHAR
STARTCHAR 007D
ENCODING 125
SWIDTH 504 0
DWIDTH 21 0
BBX 15 36 3 -7
BITMAP
FE00
FF80
FFC0
FFC0
07C0
03E0
03E0
03E0
03E0
03E0
03E0
03E0
03E0
03E0
03E0
03F0
01FE
007E
007E
01FE
01F0
03E0
03E0
03E0
03E0
03E0
03E0
03E0
03E0
03E0
03E0
07E0
FFC0
FFC0
FF80
FE00
ENDCHAR
STARTCHAR 007E
ENCODING 126
SWIDTH 504 0
DWIDTH 21 0
BBX 19 8 1 7
BITMAP
0F0180
3FC1E0
7FF1E0
7FFFE0
FFFFC0
F8FFC0
F07F80
301F00
ENDCHAR
STARTCHAR 00A0
ENCODING 160
SWIDTH 504 0
DWIDTH 21 0
BBX 0 0 0 0
BITMAP
ENDCHAR
STARTCHAR 00A1
ENCODING 161
SWIDTH 504 0
DWIDTH 21 0
BBX 7 27 7 -7
BITMAP
38
FE
FE
FE
FE
38
00
00
00
7C
7C
7C
7C
7C
7C
7C
7C
7C
7C
7C
7C
7C
7C
7C
7C
7C
7C
ENDCHAR
STARTCHAR 00A2
ENCODING 162
SWIDTH 504 0
DWIDTH 21 0
BBX 17 29 2 -3
BITMAP
00F800
00F800
00F800
00F800
00F800
03FF00
0FFF80
1FFF00
3FFF00
7F0300
7C0000
FC0000
F80000
F80000
F80000
F80000
F80000
FC0000
7E0000
7F0000
3FFF80
1FFF80
0FFF80
03FF80
00F800
00F800
00F800
00F800
00F800
ENDCHAR
STARTCHAR 00A3
ENCODING 163
SWIDTH 504 0
DWIDTH 21 0
BBX 17 27 2 0
BITMAP
00FE00
03FF80
07FF00
0FFF00
0FC300
1F8000
1F0000
1F0000
1F0000
1F0000
1F0000
1F0000
FFFC00
FFFC00
FFFC00
FFFC00
1F0000
1F0000
1F0000
1F0000
1F0000
3F0000
3E0000
3FFF80
3FFF80
3FFF80
3FFF80
ENDCHAR
STARTCHAR 00A4
ENCODING 164
SWIDTH 504 0
DWIDTH 21 0
BBX 19 18 1 4
BITMAP
100100
380380
7DFFC0
FFFFE0
7FFFC0
3FFF80
3F1F80
3E0F80
3E0780
3C0780
3E0F80
3F1F80
3FFF80
7FFFC0
FFFFE0
7DFFC0
380380
100100
ENDCHAR
STARTCHAR 00A5
ENCODING 165
SWIDTH 504 0
DWIDTH 21 0
BBX 19 26 1 0
BITMAP
F803E0
FC03E0
7C07C0
7C07C0
3E0780
3E0F80
1F0F00
1F1F00
0F1E00
07BE00
07BC00
7FFFC0
7FFFC0
7FFFC0
7FFFC0
01F000
01F000
01F000
7FFFC0
7FFFC0
7FFFC0
7FFFC0
01F000
01F000
01F000
01F000
ENDCHAR
STARTCHAR 00A6
ENCODING 166
SWIDTH 504 0
DWIDTH 21 0
BBX 5 36 8 -7
BITMAP
F8
F8
F8
F8
F8
F8
F8
F8
F8
F8
F8
F8
F8
F8
F8
00
00
00
00
00
00
F8
F8
F8
F8
F8
F8
F8
F8
F8
F8
F8
F8
F8
F8
F8
ENDCHAR
STARTCHAR 00A7
ENCODING 167
SWIDTH 504 0
DWIDTH 21 0
BBX 17 31 2 -4
BITMAP
03FC00
0FFF00
1FFF00
3FFF00
3E0600
3E0000
7E0000
3F8000
3FE000
1FF800
1FFE00
3FFF00
7CFF00
783F80
F80F80
F80F80
F80F80
FE0F00
7F9F00
7FFE00
3FFC00
0FFE00
03FF00
007F00
001F00
001F00
603F00
7FFF00
FFFE00
FFFC00
1FF000
ENDCHAR
STARTCHAR 00A8
ENCODING 168
SWIDTH 504 0
DWIDTH 21 0
BBX 15 6 3 23
BITMAP
3838
7C7C
FC7E
7C7E
7C7C
3838
ENDCHAR
STARTCHAR 00A9
ENCODING 169
SWIDTH 504 0
DWIDTH 21 0
BBX 19 22 1 -1
BITMAP
03F800
0FFE00
1FFF00
3E0F80
3C0780
78F3C0
73F1C0
E3F0E0
E700E0
E700E0
E700E0
E700E0
E700E0
E780E0
E3F0E0
73F9C0
78F3C0
380780
3E0F80
1FFF00
0FFE00
03F800
ENDCHAR
STARTCHAR 00AA
ENCODING 170
SWIDTH 504 0
DWIDTH 21 0
BBX 13 15 4 12
BITMAP
3FC0
3FF0
3FF0
20F8
0078
0078
0078
3FF8
7FF8
7878
F878
F878
7FF8
7FF8
1FF0
ENDCHAR
STARTCHAR 00AB
ENCODING 171
SWIDTH 504 0
DWIDTH 21 0
BBX 17 18 2 2
BITMAP
060200
070780
0F0780
0F0F00
1E1E00
3E1E00
3C3C00
787C00
F87800
F87800
783C00
3C3C00
3E1E00
1E1E00
0F0F00
0F0780
070700
020200
ENDCHAR
STARTCHAR 00AC
ENCODING 172
SWIDTH 504 0
DWIDTH 21 0
BBX 17 13 2 2
BITMAP
FFFF80
FFFF80
FFFF80
FFFF80
000F80
000F80
000F80
000F80
000F80
000F80
000F80
000F80
000F80
ENDCHAR
STARTCHAR 00AD
ENCODING 173
SWIDTH 504 0
DWIDTH 21 0
BBX 11 5 5 8
BITMAP
FFE0
FFE0
FFE0
FFE0
FFE0
ENDCHAR
STARTCHAR 00AE
ENCODING 174
SWIDTH 504 0
DWIDTH 21 0
BBX 19 22 1 -1
BITMAP
03F800
0FFE00
1FFF00
3E0F80
3C0780
7BF3C0
73F9C0
E3F8E0
E318E0
E318E0
E318E0
E3F0E0
E3F0E0
E3F8E0
E338E0
731DC0
7803C0
380780
3E0F80
1FFF00
0FFE00
03F800
ENDCHAR
STARTCHAR 00AF
ENCODING 175
SWIDTH 504 0
DWIDTH 21 0
BBX 12 4 5 23
BITMAP
FFF0
FFF0
FFF0
FFF0
ENDCHAR
STARTCHAR 00B0
ENCODING 176
SWIDTH 504 0
DWIDTH 21 0
BBX 12 11 5 18
BITMAP
1F00
7FC0
FFE0
F1E0
E0F0
E0F0
E0F0
F1E0
FFE0
7FC0
1F00
ENDCHAR
STARTCHAR 00B1
ENCODING 177
SWIDTH 504 0
DWIDTH 21 0
BBX 17 24 2 0
BITMAP
03E000
03E000
03E000
03E000
03E000
03E000
03E000
FFFF80
FFFF80
FFFF80
FFFF80
03E000
03E000
03E000
03E000
03E000
03E000
03E000
000000
000000
FFFF80
FFFF80
FFFF80
FFFF80
ENDCHAR
STARTCHAR 00B2
ENCODING 178
SWIDTH 504 0
DWIDTH 21 0
BBX 11 15 5 12
BITMAP
3F00
FFC0
FFC0
63E0
01E0
03E0
07C0
0FC0
1F80
3F00
3E00
7C00
7FE0
FFE0
FFE0
ENDCHAR
STARTCHAR 00B3
ENCODING 179
SWIDTH 504 0
DWIDTH 21 0
BBX 11 15 5 12
BITMAP
3F00
FFC0
7FC0
63C0
03C0
03C0
1F80
1FC0
1FE0
01E0
01E0
C1E0
FFE0
FFC0
7F00
ENDCHAR
STARTCHAR 00B4
ENCODING 180
SWIDTH 504 0
DWIDTH 21 0
BBX 9 7 6 22
BITMAP
0200
0700
1F80
3F80
FF00
7C00
2000
ENDCHAR
STARTCHAR 00B5
ENCODING 181
SWIDTH 504 0
DWIDTH 21 0
BBX 16 27 2 -7
BITMAP
FC1F
FC1F
FC1F
FC1F
FC1F
FC1F
FC1F
FC1F
FC1F
FC1F
FC1F
FC1F
FC1F
FC1F
FC1F
FC1F
FE1F
FFFF
FFFF
FFFF
FBFC
FC00
FC00
FC00
FC00
FC00
FC00
ENDCHAR
STARTCHAR 00B6
ENCODING 182
SWIDTH 504 0
DWIDTH 21 0
BBX 18 34 1 -7
BITMAP
03FF00
0FFFC0
3FFFC0
7FFFC0
7FE3C0
FFE3C0
FFE3C0
FFE3C0
FFE3C0
FFE3C0
FFE3C0
FFE3C0
FFE3C0
7FE3C0
3FE3C0
1FE3C0
07E3C0
03E3C0
03E3C0
03E3C0
03E3C0
03E3C0
03E3C0
03E3C0
03E3C0
03E3C0
03E3C0
03E3C0
03E3C0
03E3C0
03E3C0
03E3C0
03E3C0
03E3C0
ENDCHAR
STARTCHAR 00B7
ENCODING 183
SWIDTH 504 0
DWIDTH 21 0
BBX 7 8 7 7
BITMAP
38
7E
FE
FE
FE
FE
7E
38
ENDCHAR
STARTCHAR 00B8
ENCODING 184
SWIDTH 504 0
DWIDTH 21 0
BBX 8 7 7 -7
BITMAP
1C
3C
0E
0F
FF
FF
FC
ENDCHAR
STARTCHAR 00B9
ENCODING 185
SWIDTH 504 0
DWIDTH 21 0
BBX 12 15 6 11
BITMAP
0F00
1F00
7F00
FF00
FF00
CF00
0F00
0F00
0F00
0F00
0F00
FFF0
FFF0
FFF0
FFF0
ENDCHAR
STARTCHAR 00BA
ENCODING 186
SWIDTH 504 0
DWIDTH 21 0
BBX 15 16 3 11
BITMAP
07C0
1FF0
3FF8
7FFC
7C7C
F83C
F83E
F03E
F03E
F83E
F83C
7C7C
7FFC
3FF8
1FF0
07C0
ENDCHAR
STARTCHAR 00BB
ENCODING 187
SWIDTH 504 0
DWIDTH 21 0
BBX 17 17 2 3
BITMAP
202000
F07000
707800
783C00
3C3C00
3C1E00
1E1F00
1F0F00
0F8F80
1F0F00
1E1F00
3E1E00
3C3C00
783C00
787800
F07000
203000
ENDCHAR
STARTCHAR 00BC
ENCODING 188
SWIDTH 504 0
DWIDTH 21 0
BBX 21 26 0 0
BITMAP
0E03E0
1E03C0
7E07C0
FE0780
6E0F80
0E0F00
0E1F00
0E1E00
0E3C00
0E3C00
0E7800
007800
00F000
00F000
01E000
01E1E0
03C3E0
03C7E0
0786E0
078CE0
0F0CE0
0F1FF8
1E1FF8
1E1FF8
3C00E0
3C00E0
ENDCHAR
STARTCHAR 00BD
ENCODING 189
SWIDTH 504 0
DWIDTH 21 0
BBX 21 26 0 0
BITMAP
0E03E0
1E03C0
7E07C0
FE0780
6E0F80
0E0F00
0E1F00
0E1E00
0E3C00
0E3C00
0E7800
007800
00F000
00F000
01E000
01E3C0
03CFF0
03CFF0
078470
078070
0F00F0
0F03E0
1E07C0
1E0F80
3C0FF8
3C0FF8
ENDCHAR
STARTCHAR 00BE
ENCODING 190
SWIDTH 504 0
DWIDTH 21 0
BBX 20 27 1 0
BITMAP
7E0000
FF03C0
FF03C0
070780
3F0780
3F0F00
3F0F00
079E00
879E00
FFBC00
FF7C00
FE7800
00F800
00F000
01F000
01E000
03E3C0
03C7C0
07CFC0
078DC0
0F99C0
0F19C0
1F3FF0
1E3FF0
3E3FF0
3C01C0
7C01C0
ENDCHAR
STARTCHAR 00BF
ENCODING 191
SWIDTH 504 0
DWIDTH 21 0
BBX 15 28 3 -7
BITMAP
01C0
07F0
07F0
07F0
07F0
03C0
0000
0000
0000
03E0
03E0
03E0
07E0
0FC0
1FC0
3F80
7F00
7E00
FC00
FC00
F800
F800
FC04
FE1C
7FFE
3FFE
1FFC
0FF0
ENDCHAR
STARTCHAR 00C0
ENCODING 192
SWIDTH 504 0
DWIDTH 21 0
BBX 21 35 0 0
BITMAP
008000
01E000
01F000
03FC00
01FE00
003C00
000800
000000
000000
00FC00
01FC00
01FC00
01FC00
03FE00
03DE00
03DE00
07DF00
07DF00
078F00
078F80
0F8F80
0F8F80
0F0780
1F07C0
1F07C0
1FFFC0
1FFFE0
3FFFE0
3FFFE0
3E03E0
7E03F0
7C03F0
7C01F0
7C01F0
FC01F8
ENDCHAR
STARTCHAR 00C1
ENCODING 193
SWIDTH 504 0
DWIDTH 21 0
BBX 21 35 0 0
BITMAP
000800
003C00
007C00
01FE00
03F800
01E000
018000
000000
000000
00FC00
01FC00
01FC00
01FC00
03FE00
03DE00
03DE00
07DF00
07DF00
078F00
078F80
0F8F80
0F8F80
0F0780
1F07C0
1F07C0
1FFFC0
1FFFE0
3FFFE0
3FFFE0
3E03E0
7E03F0
7C03F0
7C01F0
7C01F0
FC01F8
ENDCHAR
STARTCHAR 00C2
ENCODING 194
SWIDTH 504 0
DWIDTH 21 0
BBX 21 36 0 0
BITMAP
002000
007000
00F800
01FC00
03DE00
078F00
030700
020200
000000
000000
00FC00
01FC00
01FC00
01FC00
03FE00
03DE00
03DE00
07DF00
07DF00
078F00
078F80
0F8F80
0F8F80
0F0780
1F07C0
1F07C0
1FFFC0
1FFFE0
3FFFE0
3FFFE0
3E03E0
7E03F0
7C03F0
7C01F0
7C01F0
FC01F8
ENDCHAR
STARTCHAR 00C3
ENCODING 195
SWIDTH 504 0
DWIDTH 21 0
BBX 21 34 0 0
BITMAP
03E300
07FF80
07FF80
0FFF00
0E1E00
040000
000000
000000
00FC00
01FC00
01FC00
01FC00
03FE00
03DE00
03DE00
07DF00
07DF00
078F00
078F80
0F8F80
0F8F80
0F0780
1F07C0
1F07C0
1FFFC0
1FFFE0
3FFFE0
3FFFE0
3E03E0
7E03F0
7C03F0
7C01F0
7C01F0
FC01F8
ENDCHAR
STARTCHAR 00C4
ENCODING 196
SWIDTH 504 0
DWIDTH 21 0
BBX 21 35 0 0
BITMAP
070700
0F8F80
1F8FC0
0F8FC0
0F8F80
070700
000000
000000
000000
00FC00
01FC00
01FC00
01FC00
03FE00
03DE00
03DE00
07DF00
07DF00
078F00
078F80
0F8F80
0F8F80
0F0780
1F07C0
1F07C0
1FFFC0
1FFFE0
3FFFE0
3FFFE0
3E03E0
7E03F0
7C03F0
7C01F0
7C01F0
FC01F8
ENDCHAR
STARTCHAR 00C5
ENCODING 197
SWIDTH 504 0
DWIDTH 21 0
BBX 21 33 0 0
BITMAP
00F800
01FC00
03DE00
038E00
038E00
038E00
01FC00
01FC00
01FC00
01FC00
01FC00
03FE00
03FE00
03DE00
07DF00
07DF00
079F00
078F80
0F8F80
0F8F80
0F0F80
1F07C0
1F07C0
1FFFC0
1FFFE0
3FFFE0
3FFFE0
3E03E0
7E03F0
7C03F0
7C01F0
7C01F0
FC01F8
ENDCHAR
STARTCHAR 00C6
ENCODING 198
SWIDTH 504 0
DWIDTH 21 0
BBX 21 26 0 0
BITMAP
00FFF0
00FFF0
01FFF0
01FFF0
01DE00
03DE00
03DE00
03DE00
07DE00
079E00
079FE0
0F9FE0
0F9FE0
0F1FE0
1F1E00
1F1E00
1FFE00
1FFE00
3FFE00
3FFE00
3E1E00
7E1E00
7C1FF8
7C1FF8
7C1FF8
FC1FF8
ENDCHAR
STARTCHAR 00C7
ENCODING 199
SWIDTH 504 0
DWIDTH 21 0
BBX 19 34 1 -7
BITMAP
00FE00
03FFC0
07FFC0
0FFFC0
1F81C0
3F0040
3E0000
7E0000
7C0000
7C0000
FC0000
FC0000
F80000
F80000
F80000
F80000
FC0000
FC0000
FC0000
7C0000
7C0000
7E0000
3F00C0
3F81C0
1FFFC0
0FFFE0
07FFC0
01FE00
00F000
007800
003C00
03FC00
03FC00
03F000
ENDCHAR
STARTCHAR 00C8
ENCODING 200
SWIDTH 504 0
DWIDTH 21 0
BBX 16 35 3 0
BITMAP
0400
0F00
0F80
1FE0
0FF0
01E0
0040
0000
0000
FFFE
FFFE
FFFE
FFFE
F800
F800
F800
F800
F800
F800
F800
FFFC
FFFC
FFFC
FFFC
F800
F800
F800
F800
F800
F800
F800
FFFF
FFFF
FFFF
FFFF
ENDCHAR
STARTCHAR 00C9
ENCODING 201
SWIDTH 504 0
DWIDTH 21 0
BBX 16 35 3 0
BITMAP
0040
01E0
03E0
0FF0
1FC0
0F00
0C00
0000
0000
FFFE
FFFE
FFFE
FFFE
F800
F800
F800
F800
F800
F800
F800
FFFC
FFFC
FFFC
FFFC
F800
F800
F800
F800
F800
F800
F800
FFFF
FFFF
FFFF
FFFF
ENDCHAR
STARTCHAR 00CA
ENCODING 202
SWIDTH 504 0
DWIDTH 21 0
BBX 16 36 3 0
BITMAP
0100
0380
07C0
0FE0
1EF0
3C78
1838
1010
0000
0000
FFFE
FFFE
FFFE
FFFE
F800
F800
F800
F800
F800
F800
F800
FFFC
FFFC
FFFC
FFFC
F800
F800
F800
F800
F800
F800
F800
FFFF
FFFF
FFFF
FFFF
ENDCHAR
STARTCHAR 00CB
ENCODING 203
SWIDTH 504 0
DWIDTH 21 0
BBX 16 35 3 0
BITMAP
3838
7C7C
FC7E
7C7E
7C7C
3838
0000
0000
0000
FFFE
FFFE
FFFE
FFFE
F800
F800
F800
F800
F800
F800
F800
FFFC
FFFC
FFFC
FFFC
F800
F800
F800
F800
F800
F800
F800
FFFF
FFFF
FFFF
FFFF
ENDCHAR
STARTCHAR 00CC
ENCODING 204
SWIDTH 504 0
DWIDTH 21 0
BBX 17 35 2 0
BITMAP
020000
078000
07C000
0FF000
07F800
00F000
002000
000000
000000
FFFF80
FFFF80
FFFF80
FFFF80
03E000
03E000
03E000
03E000
03E000
03E000
03E000
03E000
03E000
03E000
03E000
03E000
03E000
03E000
03E000
03E000
03E000
03E000
FFFF80
FFFF80
FFFF80
FFFF80
ENDCHAR
STARTCHAR 00CD
ENCODING 205
SWIDTH 504 0
DWIDTH 21 0
BBX 17 35 2 0
BITMAP
002000
00F000
01F000
07F800
0FE000
078000
060000
000000
000000
FFFF80
FFFF80
FFFF80
FFFF80
03E000
03E000
03E000
03E000
03E000
03E000
03E000
03E000
03E000
03E000
03E000
03E000
03E000
03E000
03E000
03E000
03E000
03E000
FFFF80
FFFF80
FFFF80
FFFF80
ENDCHAR
STARTCHAR 00CE
ENCODING 206
SWIDTH 504 0
DWIDTH 21 0
BBX 17 36 2 0
BITMAP
008000
01C000
03E000
07F000
0F7800
1E3C00
0C1C00
080800
000000
000000
FFFF80
FFFF80
FFFF80
FFFF80
03E000
03E000
03E000
03E000
03E000
03E000
03E000
03E000
03E000
03E000
03E000
03E000
03E000
03E000
03E000
03E000
03E000
03E000
FFFF80
FFFF80
FFFF80
FFFF80
ENDCHAR
STARTCHAR 00CF
ENCODING 207
SWIDTH 504 0
DWIDTH 21 0
BBX 17 35 2 0
BITMAP
1C1C00
3E3E00
7E3F00
3E3F00
3E3E00
1C1C00
000000
000000
000000
FFFF80
FFFF80
FFFF80
FFFF80
03E000
03E000
03E000
03E000
03E000
03E000
03E000
03E000
03E000
03E000
03E000
03E000
03E000
03E000
03E000
03E000
03E000
03E000
FFFF80
FFFF80
FFFF80
FFFF80
ENDCHAR
STARTCHAR 00D0
ENCODING 208
SWIDTH 504 0
DWIDTH 21 0
BBX 19 27 1 -1
BITMAP
1FF000
3FFC00
3FFE00
3FFF00
3E1F80
3E0F80
3E0FC0
3E07C0
3E07C0
3E07E0
3E07E0
FFC3E0
FFC3E0
FFC3E0
FFC3E0
3E03E0
3E07E0
3E07E0
3E07C0
3E07C0
3E0FC0
3E0F80
3E3F80
3FFF00
3FFE00
3FFC00
1FE000
ENDCHAR
STARTCHAR 00D1
ENCODING 209
SWIDTH 504 0
DWIDTH 21 0
BBX 17 34 2 0
BITMAP
0F8C00
1FFE00
1FFE00
3FFC00
387800
100000
000000
000000
F00F80
F80F80
FC0F80
FC0F80
FE0F80
FE0F80
FF0F80
FF0F80
FF8F80
FF8F80
FBCF80
FBCF80
F9EF80
F9EF80
F8FF80
F8FF80
F87F80
F87F80
F83F80
F83F80
F81F80
F81F80
F81F80
F80F80
F80F80
F80780
ENDCHAR
STARTCHAR 00D2
ENCODING 210
SWIDTH 504 0
DWIDTH 21 0
BBX 19 36 1 -1
BITMAP
010000
03C000
03E000
07F800
03FC00
007800
001000
000000
03F800
07FE00
1FFF00
1FFF00
3F1F80
3E0FC0
7C07C0
7C07C0
7C07C0
FC07E0
FC07E0
F803E0
F803E0
F803E0
F803E0
F803E0
F803E0
F807E0
FC07E0
7C07C0
7C07C0
7C07C0
7E0FC0
3F1F80
1FFF00
1FFF00
0FFE00
03F800
ENDCHAR
STARTCHAR 00D3
ENCODING 211
SWIDTH 504 0
DWIDTH 21 0
BBX 19 36 1 -1
BITMAP
001000
007800
00F800
03FC00
07F000
03C000
030000
000000
03F800
07FE00
1FFF00
1FFF00
3F1F80
3E0FC0
7C07C0
7C07C0
7C07C0
FC07E0
FC07E0
F803E0
F803E0
F803E0
F803E0
F803E0
F803E0
F807E0
FC07E0
7C07C0
7C07C0
7C07C0
7E0FC0
3F1F80
1FFF00
1FFF00
0FFE00
03F800
ENDCHAR
STARTCHAR 00D4
ENCODING 212
SWIDTH 504 0
DWIDTH 21 0
BBX 19 37 1 -1
BITMAP
004000
00E000
01F000
03F800
07BC00
0F1E00
060E00
040400
000000
03F800
07FE00
1FFF00
1FFF00
3F1F80
3E0FC0
7C07C0
7C07C0
7C07C0
FC07E0
FC07E0
F803E0
F803E0
F803E0
F803E0
F803E0
F803E0
F807E0
FC07E0
7C07C0
7C07C0
7C07C0
7E0FC0
3F1F80
1FFF00
1FFF00
0FFE00
03F800
ENDCHAR
STARTCHAR 00D5
ENCODING 213
SWIDTH 504 0
DWIDTH 21 0
BBX 19 35 1 -1
BITMAP
07C600
0FFF00
0FFF00
1FFE00
1C3C00
080000
000000
03F800
07FE00
1FFF00
1FFF00
3F1F80
3E0FC0
7C07C0
7C07C0
7C07C0
FC07E0
FC07E0
F803E0
F803E0
F803E0
F803E0
F803E0
F803E0
F807E0
FC07E0
7C07C0
7C07C0
7C07C0
7E0FC0
3F1F80
1FFF00
1FFF00
0FFE00
03F800
ENDCHAR
STARTCHAR 00D6
ENCODING 214
SWIDTH 504 0
DWIDTH 21 0
BBX 19 36 1 -1
BITMAP
0E0E00
1F1F00
3F1F80
1F1F80
1F1F00
0E0E00
000000
000000
03F800
07FE00
1FFF00
1FFF00
3F1F80
3E0FC0
7C07C0
7C07C0
7C07C0
FC07E0
FC07E0
F803E0
F803E0
F803E0
F803E0
F803E0
F803E0
F807E0
FC07E0
7C07C0
7C07C0
7C07C0
7E0FC0
3F1F80
1FFF00
1FFF00
0FFE00
03F800
ENDCHAR
STARTCHAR 00D7
ENCODING 215
SWIDTH 504 0
DWIDTH 21 0
BBX 16 16 3 3
BITMAP
2008
701C
F83E
FC7E
7EFC
3FF8
1FF0
0FE0
0FE0
1FF0
3FF8
7EFC
FC7E
F83F
701E
200C
ENDCHAR
STARTCHAR 00D8
ENCODING 216
SWIDTH 504 0
DWIDTH 21 0
BBX 19 30 1 -2
BITMAP
000200
03FB80
07FFC0
1FFF80
1FFF80
3F1F80
7E1F80
7C1FC0
7C3FC0
7C3FC0
FC3FC0
FC7FE0
F87BE0
F8F3E0
F8F3E0
F9E3E0
F9E3E0
FBC3E0
FBC7E0
FF87E0
7F87C0
7F87C0
7F07C0
3F0FC0
3F1F80
3FFF00
3FFF00
7FFC00
3BF800
180000
ENDCHAR
STARTCHAR 00D9
ENCODING 217
SWIDTH 504 0
DWIDTH 21 0
BBX 17 36 2 -1
BITMAP
020000
070000
0FC000
1FE000
07F000
01F000
006000
000000
000000
F80F80
F80F80
F80F80
F80F80
F80F80
F80F80
F80F80
F80F80
F80F80
F80F80
F80F80
F80F80
F80F80
F80F80
F80F80
F80F80
F80F80
F80F80
F80F80
F80F80
F80F80
FC0F80
FC1F00
7FFF00
3FFE00
1FFC00
07F000
ENDCHAR
STARTCHAR 00DA
ENCODING 218
SWIDTH 504 0
DWIDTH 21 0
BBX 17 36 2 -1
BITMAP
003000
007000
01F800
03FC00
07F000
07C000
030000
000000
000000
F80F80
F80F80
F80F80
F80F80
F80F80
F80F80
F80F80
F80F80
F80F80
F80F80
F80F80
F80F80
F80F80
F80F80
F80F80
F80F80
F80F80
F80F80
F80F80
F80F80
F80F80
FC0F80
FC1F00
7FFF00
3FFE00
1FFC00
07F000
ENDCHAR
STARTCHAR 00DB
ENCODING 219
SWIDTH 504 0
DWIDTH 21 0
BBX 17 37 2 -1
BITMAP
008000
01C000
03E000
07F000
0F7800
1E3C00
0C1C00
080800
000000
000000
F80F80
F80F80
F80F80
F80F80
F80F80
F80F80
F80F80
F80F80
F80F80
F80F80
F80F80
F80F80
F80F80
F80F80
F80F80
F80F80
F80F80
F80F80
F80F80
F80F80
F80F80
FC0F80
FC1F00
7FFF00
3FFE00
1FFC00
07F000
ENDCHAR
STARTCHAR 00DC
ENCODING 220
SWIDTH 504 0
DWIDTH 21 0
BBX 17 36 2 -1
BITMAP
1C1C00
3E3E00
7E3F00
3E3F00
3E3E00
1C1C00
000000
000000
000000
F80F80
F80F80
F80F80
F80F80
F80F80
F80F80
F80F80
F80F80
F80F80
F80F80
F80F80
F80F80
F80F80
F80F80
F80F80
F80F80
F80F80
F80F80
F80F80
F80F80
F80F80
FC0F80
FC1F00
7FFF00
3FFE00
1FFC00
07F000
ENDCHAR
STARTCHAR 00DD
ENCODING 221
SWIDTH 504 0
DWIDTH 21 0
BBX 19 35 1 0
BITMAP
001800
003800
00FC00
01FE00
03F800
03E000
018000
000000
000000
F803E0
FC03E0
FC07E0
7C07C0
7E07C0
3E0F80
3E0F80
1F1F80
1F1F00
1F9F00
0FBE00
0FBE00
07FC00
07FC00
03F800
01F000
01F000
01F000
01F000
01F000
01F000
01F000
01F000
01F000
01F000
01F000
ENDCHAR
STARTCHAR 00DE
ENCODING 222
SWIDTH 504 0
DWIDTH 21 0
BBX 18 26 2 0
BITMAP
F80000
F80000
F80000
F80000
FFF000
FFFC00
FFFF00
FFFF00
F81F80
F80F80
F80FC0
F80FC0
F807C0
F80FC0
F80FC0
F80F80
F83F80
FFFF00
FFFE00
FFFC00
FFF000
F80000
F80000
F80000
F80000
F80000
ENDCHAR
STARTCHAR 00DF
ENCODING 223
SWIDTH 504 0
DWIDTH 21 0
BBX 20 30 1 -1
BITMAP
07F000
1FFC00
3FFE00
3FFF00
7E3F00
7C1F00
FC1F00
FC1F00
F81F00
F83F00
F83E00
F87C00
F87C00
F8F800
F8F800
F8FC00
F8FC00
F87F00
F87F80
F83FC0
F80FE0
F807E0
F803F0
F803F0
F803F0
F8C3E0
F8FFE0
F8FFE0
F8FFC0
007F00
ENDCHAR
STARTCHAR 00E0
ENCODING 224
SWIDTH 504 0
DWIDTH 21 0
BBX 17 30 2 -1
BITMAP
020000
078000
0FC000
0FF000
07F800
00F000
002000
000000
1FF000
3FFC00
3FFE00
3FFF00
203F00
001F00
001F00
001F00
000F80
0FFF80
3FFF80
7FFF80
FFFF80
FC0F80
F80F80
F80F80
F80F80
FC0F80
FFFF80
7FFF80
3FFF80
0FFC00
ENDCHAR
STARTCHAR 00E1
ENCODING 225
SWIDTH 504 0
DWIDTH 21 0
BBX 17 30 2 -1
BITMAP
002000
007000
01F800
03F800
0FF000
07C000
020000
000000
1FF000
3FFC00
3FFE00
3FFF00
203F00
001F00
001F00
001F00
000F80
0FFF80
3FFF80
7FFF80
FFFF80
FC0F80
F80F80
F80F80
F80F80
FC0F80
FFFF80
7FFF80
3FFF80
0FFC00
ENDCHAR
STARTCHAR 00E2
ENCODING 226
SWIDTH 504 0
DWIDTH 21 0
BBX 17 31 2 -1
BITMAP
008000
01C000
03E000
07F000
0F7800
1E3C00
0C1C00
080800
000000
1FF000
3FFC00
3FFE00
3FFF00
203F00
001F00
001F00
001F00
000F80
0FFF80
3FFF80
7FFF80
FFFF80
FC0F80
F80F80
F80F80
F80F80
FC0F80
FFFF80
7FFF80
3FFF80
0FFC00
ENDCHAR
STARTCHAR 00E3
ENCODING 227
SWIDTH 504 0
DWIDTH 21 0
BBX 17 29 2 -1
BITMAP
078C00
1FFE00
1FFE00
3FFC00
387800
080000
000000
1FF000
3FFC00
3FFE00
3FFF00
203F00
001F00
001F00
001F00
000F80
0FFF80
3FFF80
7FFF80
FFFF80
FC0F80
F80F80
F80F80
F80F80
FC0F80
FFFF80
7FFF80
3FFF80
0FFC00
ENDCHAR
STARTCHAR 00E4
ENCODING 228
SWIDTH 504 0
DWIDTH 21 0
BBX 17 30 2 -1
BITMAP
1C1C00
3E3E00
7E3F00
3E3F00
3E3E00
1C1C00
000000
000000
1FF000
3FFC00
3FFE00
3FFF00
203F00
001F00
001F00
001F00
000F80
0FFF80
3FFF80
7FFF80
FFFF80
FC0F80
F80F80
F80F80
F80F80
FC0F80
FFFF80
7FFF80
3FFF80
0FFC00
ENDCHAR
STARTCHAR 00E5
ENCODING 229
SWIDTH 504 0
DWIDTH 21 0
BBX 17 32 2 -1
BITMAP
03E000
07F000
07F000
0E3800
0E3800
0E3800
0E3800
07F000
07F000
03C000
1FF000
3FFC00
3FFE00
3FFF00
203F00
001F00
001F00
001F00
000F80
0FFF80
3FFF80
7FFF80
FFFF80
FC0F80
F80F80
F80F80
F80F80
FC0F80
FFFF80
7FFF80
3FFF80
0FFC00
ENDCHAR
STARTCHAR 00E6
ENCODING 230
SWIDTH 504 0
DWIDTH 21 0
BBX 20 22 1 -1
BITMAP
1F0F00
3FDF80
3FFFC0
3FFFC0
21F9E0
00F1E0
00F1E0
00F0E0
00F0E0
1FFFE0
3FFFF0
7FFFF0
F8FFE0
F0F000
F0F000
F0F000
F0F800
F8FC00
7FFFC0
7FFFE0
3FDFE0
1F0FC0
ENDCHAR
STARTCHAR 00E7
ENCODING 231
SWIDTH 504 0
DWIDTH 21 0
BBX 18 28 2 -7
BITMAP
01FE00
07FF80
1FFF80
3FFF80
7F8100
7E0000
7C0000
FC0000
F80000
F80000
F80000
F80000
F80000
FC0000
FC0000
7E0000
7F8080
3FFF80
1FFF80
0FFF80
03FFC0
01FF00
01E000
007000
007800
07F800
07F800
07E000
ENDCHAR
STARTCHAR 00E8
ENCODING 232
SWIDTH 504 0
DWIDTH 21 0
BBX 19 30 1 -1
BITMAP
010000
03C000
07E000
07F800
03FC00
007800
001000
000000
01F800
07FE00
0FFF00
1FFF80
3F0F80
7E07C0
7C07C0
7C07C0
FC03C0
FFFFC0
FFFFE0
FFFFE0
FFFFC0
FC0000
7C0000
7C0000
7E0000
3F8180
1FFF80
1FFF80
07FF80
01FE00
ENDCHAR
STARTCHAR 00E9
ENCODING 233
SWIDTH 504 0
DWIDTH 21 0
BBX 19 30 1 -1
BITMAP
000800
003800
007C00
01FE00
03F800
01E000
018000
000000
01F800
07FE00
0FFF00
1FFF80
3F0F80
7E07C0
7C07C0
7C07C0
FC03C0
FFFFC0
FFFFE0
FFFFE0
FFFFC0
FC0000
7C0000
7C0000
7E0000
3F8180
1FFF80
1FFF80
07FF80
01FE00
ENDCHAR
STARTCHAR 00EA
ENCODING 234
SWIDTH 504 0
DWIDTH 21 0
BBX 19 31 1 -1
BITMAP
004000
00E000
01F000
03FC00
07BE00
0F1E00
060E00
020400
000000
01F800
07FE00
0FFF00
1FFF80
3F0F80
7E07C0
7C07C0
7C07C0
FC03C0
FFFFC0
FFFFE0
FFFFE0
FFFFC0
FC0000
7C0000
7C0000
7E0000
3F8180
1FFF80
1FFF80
07FF80
01FE00
ENDCHAR
STARTCHAR 00EB
ENCODING 235
SWIDTH 504 0
DWIDTH 21 0
BBX 19 30 1 -1
BITMAP
0E0E00
1F1F00
3F1F80
1F1F80
1F1F00
0E0E00
000000
000000
01F800
07FE00
0FFF00
1FFF80
3F0F80
7E07C0
7C07C0
7C07C0
FC03C0
FFFFC0
FFFFE0
FFFFE0
FFFFC0
FC0000
7C0000
7C0000
7E0000
3F8180
1FFF80
1FFF80
07FF80
01FE00
ENDCHAR
STARTCHAR 00EC
ENCODING 236
SWIDTH 504 0
DWIDTH 21 0
BBX 18 30 2 -1
BITMAP
040000
0F0000
0F8000
1FE000
07F000
01E000
006000
000000
000000
FFC000
FFC000
FFC000
FFC000
07C000
07C000
07C000
07C000
07C000
07C000
07C000
07C000
07C000
07C000
07C000
07C000
07E080
03FF80
03FF80
01FFC0
007F00
ENDCHAR
STARTCHAR 00ED
ENCODING 237
SWIDTH 504 0
DWIDTH 21 0
BBX 18 30 2 -1
BITMAP
002000
00F000
01F000
07F800
0FE000
078000
060000
000000
000000
FFC000
FFC000
FFC000
FFC000
07C000
07C000
07C000
07C000
07C000
07C000
07C000
07C000
07C000
07C000
07C000
07C000
07E080
03FF80
03FF80
01FFC0
007F00
ENDCHAR
STARTCHAR 00EE
ENCODING 238
SWIDTH 504 0
DWIDTH 21 0
BBX 18 31 2 -1
BITMAP
010000
038000
07E000
0FF000
1EF800
3C7C00
1C3800
081000
000000
000000
FFC000
FFC000
FFC000
FFC000
07C000
07C000
07C000
07C000
07C000
07C000
07C000
07C000
07C000
07C000
07C000
07C000
07E080
03FF80
03FF80
01FFC0
007F00
ENDCHAR
STARTCHAR 00EF
ENCODING 239
SWIDTH 504 0
DWIDTH 21 0
BBX 18 30 2 -1
BITMAP
383C00
7C7E00
7E7E00
7E7E00
7C7E00
383C00
000000
000000
000000
FFC000
FFC000
FFC000
FFC000
07C000
07C000
07C000
07C000
07C000
07C000
07C000
07C000
07C000
07C000
07C000
07C000
07E080
03FF80
03FF80
01FFC0
007F00
ENDCHAR
STARTCHAR 00F0
ENCODING 240
SWIDTH 504 0
DWIDTH 21 0
BBX 18 30 2 -1
BITMAP
008000
01C000
07E000
03F380
01FFC0
00FFC0
07FF00
07FE00
07FE00
03BE00
003F00
001F00
001F00
0FFF80
3FFF80
7FFF80
7FFF80
FC0F80
F80F80
F80F80
F80F80
F80F80
F81F80
F81F00
FC1F00
7E3F00
7FFE00
3FFC00
1FF800
07E000
ENDCHAR
STARTCHAR 00F1
ENCODING 241
SWIDTH 504 0
DWIDTH 21 0
BBX 16 28 3 0
BITMAP
0F18
3FFC
3FFC
7FF8
70F0
1000
0000
3FE0
FFF8
FFFC
FFFC
F87E
F83E
F83E
F83E
F83E
F83F
F83F
F83F
F83F
F83F
F83F
F83F
F83F
F83F
F83F
F83F
F83F
ENDCHAR
STARTCHAR 00F2
ENCODING 242
SWIDTH 504 0
DWIDTH 21 0
BBX 19 30 1 -1
BITMAP
010000
03C000
07E000
07F800
03FC00
007800
001000
000000
01F800
07FE00
1FFF00
3FFF80
3F1F80
7E0FC0
7C07C0
7C07C0
FC07E0
FC07E0
F803E0
F807E0
FC07E0
FC07E0
7C07C0
7C07C0
7E0FC0
3F1F80
3FFF80
1FFF00
0FFE00
03F800
ENDCHAR
STARTCHAR 00F3
ENCODING 243
SWIDTH 504 0
DWIDTH 21 0
BBX 19 30 1 -1
BITMAP
001000
007800
00F800
03FC00
07F000
03C000
010000
000000
01F800
07FE00
1FFF00
3FFF80
3F1F80
7E0FC0
7C07C0
7C07C0
FC07E0
FC07E0
F803E0
F807E0
FC07E0
FC07E0
7C07C0
7C07C0
7E0FC0
3F1F80
3FFF80
1FFF00
0FFE00
03F800
ENDCHAR
STARTCHAR 00F4
ENCODING 244
SWIDTH 504 0
DWIDTH 21 0
BBX 19 31 1 -1
BITMAP
004000
00E000
01F000
03F800
07BC00
0F1E00
060E00
040400
000000
01F800
07FE00
1FFF00
3FFF80
3F1F80
7E0FC0
7C07C0
7C07C0
FC07E0
FC07E0
F803E0
F807E0
FC07E0
FC07E0
7C07C0
7C07C0
7E0FC0
3F1F80
3FFF80
1FFF00
0FFE00
03F800
ENDCHAR
STARTCHAR 00F5
ENCODING 245
SWIDTH 504 0
DWIDTH 21 0
BBX 19 29 1 -1
BITMAP
03C600
0FFF00
0FFF00
1FFE00
1C3C00
040000
000000
01F800
07FE00
1FFF00
3FFF80
3F1F80
7E0FC0
7C07C0
7C07C0
FC07E0
FC07E0
F803E0
F807E0
FC07E0
FC07E0
7C07C0
7C07C0
7E0FC0
3F1F80
3FFF80
1FFF00
0FFE00
03F800
ENDCHAR
STARTCHAR 00F6
ENCODING 246
SWIDTH 504 0
DWIDTH 21 0
BBX 19 30 1 -1
BITMAP
0E0E00
1F1F00
3F1F80
1F1F80
1F1F00
0E0E00
000000
000000
01F800
07FE00
1FFF00
3FFF80
3F1F80
7E0FC0
7C07C0
7C07C0
FC07E0
FC07E0
F803E0
F807E0
FC07E0
FC07E0
7C07C0
7C07C0
7E0FC0
3F1F80
3FFF80
1FFF00
0FFE00
03F800
ENDCHAR
STARTCHAR 00F7
ENCODING 247
SWIDTH 504 0
DWIDTH 21 0
BBX 17 23 2 -1
BITMAP
01C000
03E000
03E000
03E000
03E000
01C000
000000
000000
000000
000000
FFFF80
FFFF80
FFFF80
FFFF80
000000
000000
000000
01C000
03E000
03E000
03E000
03E000
01C000
ENDCHAR
STARTCHAR 00F8
ENCODING 248
SWIDTH 504 0
DWIDTH 21 0
BBX 19 24 1 -2
BITMAP
000100
01F9C0
07FFC0
1FFFC0
3FFF80
3F1F80
7E1FC0
7C3FC0
7C7FC0
FCFFE0
F8FFE0
F9FFE0
FFF3E0
FFE7E0
FFE7E0
7FC7C0
7F87C0
7F0FC0
3F1F80
3FFF80
3FFF00
7FFE00
71F800
100000
ENDCHAR
STARTCHAR 00F9
ENCODING 249
SWIDTH 504 0
DWIDTH 21 0
BBX 16 30 2 -1
BITMAP
0200
0780
0FC0
0FF0
07F8
00F0
0020
0000
0000
FC1F
FC1F
FC1F
FC1F
FC1F
FC1F
FC1F
FC1F
FC1F
FC1F
FC1F
FC1F
FC1F
7C1F
7C1F
7C1F
7E1F
3FFF
3FFF
1FFF
07FC
ENDCHAR
STARTCHAR 00FA
ENCODING 250
SWIDTH 504 0
DWIDTH 21 0
BBX 16 30 2 -1
BITMAP
0020
00F0
01F0
07F8
0FE0
0780
0600
0000
0000
FC1F
FC1F
FC1F
FC1F
FC1F
FC1F
FC1F
FC1F
FC1F
FC1F
FC1F
FC1F
FC1F
7C1F
7C1F
7C1F
7E1F
3FFF
3FFF
1FFF
07FC
ENDCHAR
STARTCHAR 00FB
ENCODING 251
SWIDTH 504 0
DWIDTH 21 0
BBX 16 31 2 -1
BITMAP
0080
01C0
03E0
07F0
0F78
1E3C
0C1C
0808
0000
0000
FC1F
FC1F
FC1F
FC1F
FC1F
FC1F
FC1F
FC1F
FC1F
FC1F
FC1F
FC1F
FC1F
7C1F
7C1F
7C1F
7E1F
3FFF
3FFF
1FFF
07FC
ENDCHAR
STARTCHAR 00FC
ENCODING 252
SWIDTH 504 0
DWIDTH 21 0
BBX 16 30 2 -1
BITMAP
1C1C
3E3E
7E3F
3E3F
3E3E
1C1C
0000
0000
0000
FC1F
FC1F
FC1F
FC1F
FC1F
FC1F
FC1F
FC1F
FC1F
FC1F
FC1F
FC1F
FC1F
7C1F
7C1F
7C1F
7E1F
3FFF
3FFF
1FFF
07FC
ENDCHAR
STARTCHAR 00FD
ENCODING 253
SWIDTH 504 0
DWIDTH 21 0
BBX 19 37 1 -8
BITMAP
001000
007800
00F800
03FC00
07F000
03C000
030000
000000
000000
7C07E0
7C07C0
7E07C0
7E07C0
3E07C0
3E0F80
3F0F80
1F0F80
1F0F80
1F9F00
0F9F00
0F9F00
0FFE00
07FE00
07FE00
07FC00
03FC00
03FC00
01F800
01F800
00F000
01F000
03F000
47E000
FFC000
FFC000
FF8000
FE0000
ENDCHAR
STARTCHAR 00FE
ENCODING 254
SWIDTH 504 0
DWIDTH 21 0
BBX 17 37 3 -7
BITMAP
380000
F80000
F80000
F80000
F80000
F80000
F80000
F80000
F80000
F80000
FFE000
FFF800
FFFC00
FFFE00
F87E00
F83F00
F81F00
F81F00
F81F80
F81F80
F81F80
F81F80
F81F80
F81F00
F81F00
F83F00
F83F00
FFFE00
FFFC00
FFF800
FBF000
F80000
F80000
F80000
F80000
F80000
F80000
ENDCHAR
STARTCHAR 00FF
ENCODING 255
SWIDTH 504 0
DWIDTH 21 0
BBX 19 37 1 -8
BITMAP
0E0E00
1F1F00
3F1F80
1F1F80
1F1F00
0E0E00
000000
000000
000000
7C07E0
7C07C0
7E07C0
7E07C0
3E07C0
3E0F80
3F0F80
1F0F80
1F0F80
1F9F00
0F9F00
0F9F00
0FFE00
07FE00
07FE00
07FC00
03FC00
03FC00
01F800
01F800
00F000
01F000
03F000
47E000
FFC000
FFC000
FF8000
FE0000
ENDCHAR
STARTCHAR 0152
ENCODING 140
SWIDTH 504 0
DWIDTH 21 0
BBX 20 27 1 -1
BITMAP
07FFE0
0FFFE0
1FFFE0
3FFFE0
7E3C00
7C3C00
783C00
F83C00
F83C00
F83C00
F83FC0
F83FC0
F83FC0
F83FC0
F83C00
F83C00
F83C00
F83C00
F83C00
F83C00
F83C00
7C3C00
7E3FF0
3FFFF0
3FFFF0
1FFFF0
07C000
ENDCHAR
STARTCHAR 0153
ENCODING 156
SWIDTH 504 0
DWIDTH 21 0
BBX 20 22 1 -1
BITMAP
0F0F00
3F9F80
3FFFC0
7FFFC0
79F9E0
F1F1E0
F0F1E0
F0F0E0
F0F0E0
F0FFE0
F0FFF0
F0FFE0
F0FFE0
F0F000
F0F000
F0F000
F9F800
79FC40
7FFFC0
3FFFE0
3F9FE0
0F0FC0
ENDCHAR
STARTCHAR 0160
ENCODING 138
SWIDTH 504 0
DWIDTH 21 0
BBX 17 37 2 -1
BITMAP
080800
0E3800
1F7C00
0FF800
07F000
03E000
01C000
008000
000000
07F800
1FFF00
3FFF00
7FFE00
7E0600
FC0000
F80000
F80000
F80000
FC0000
FE0000
7FC000
3FF000
1FFC00
0FFE00
01FF00
007F80
001F80
000F80
000F80
000F80
000F80
400F80
703F80
FFFF00
FFFE00
FFFC00
1FF000
ENDCHAR
STARTCHAR 0161
ENCODING 154
SWIDTH 504 0
DWIDTH 21 0
BBX 17 31 2 -1
BITMAP
080800
0E3800
1F7C00
0FF800
07F000
03E000
01C000
008000
000000
03FC00
1FFF00
3FFE00
3FFE00
7E0600
7C0000
7C0000
7E0000
7F8000
7FF000
3FFC00
1FFE00
07FF00
00FF00
003F00
001F80
001F80
701F00
7FFF00
FFFE00
FFFC00
1FF000
ENDCHAR
STARTCHAR 0178
ENCODING 159
SWIDTH 504 0
DWIDTH 21 0
BBX 19 35 1 0
BITMAP
0E0E00
1F1F00
3F1F80
1F1F80
1F1F00
0E0E00
000000
000000
000000
F803E0
FC03E0
FC07E0
7C07C0
7E07C0
3E0F80
3E0F80
1F1F80
1F1F00
1F9F00
0FBE00
0FBE00
07FC00
07FC00
03F800
01F000
01F000
01F000
01F000
01F000
01F000
01F000
01F000
01F000
01F000
01F000
ENDCHAR
STARTCHAR 017D
ENCODING 142
SWIDTH 504 0
DWIDTH 21 0
BBX 17 35 2 0
BITMAP
080800
0E3800
1F7C00
0FF800
07F000
03E000
01C000
008000
000000
FFFF80
FFFF80
FFFF80
FFFF80
003F00
003F00
007E00
00FC00
00FC00
01F800
01F800
03F000
03E000
07E000
0FC000
0FC000
1F8000
1F0000
3F0000
3E0000
7E0000
7C0000
FFFF80
FFFF80
FFFF80
FFFF80
ENDCHAR
STARTCHAR 017E
ENCODING 158
SWIDTH 504 0
DWIDTH 21 0
BBX 15 29 3 0
BITMAP
1010
1C70
3EF8
1FF0
0FE0
07C0
0380
0100
0000
FFFE
FFFE
FFFE
FFFE
00FC
01FC
01F8
03F0
07E0
0FE0
0FC0
1F80
3F00
3F00
7E00
7C00
FFFE
FFFE
FFFE
FFFE
ENDCHAR
STARTCHAR 0192
ENCODING 131
SWIDTH 504 0
DWIDTH 21 0
BBX 21 38 0 -8
BITMAP
001FE0
007FF8
00FFF0
01FFF0
03F030
03F000
03E000
03E000
03E000
3FFFE0
3FFFE0
3FFFE0
3FFFE0
03E000
03E000
03E000
03E000
03E000
03E000
03E000
03E000
03E000
03E000
03E000
03E000
03E000
03E000
03E000
03E000
03E000
03E000
03E000
07E000
07C000
7FC000
7F8000
FF0000
FC0000
ENDCHAR
STARTCHAR 02C6
ENCODING 136
SWIDTH 504 0
DWIDTH 21 0
BBX 11 8 5 22
BITMAP
0400
0E00
1F00
3F80
7BC0
F1E0
60E0
4040
ENDCHAR
STARTCHAR 02DC
ENCODING 152
SWIDTH 504 0
DWIDTH 21 0
BBX 13 6 4 22
BITMAP
1E30
7FF8
7FF8
FFF0
E1E0
2000
ENDCHAR
STARTCHAR 2013
ENCODING 150
SWIDTH 504 0
DWIDTH 21 0
BBX 17 4 2 9
BITMAP
FFFF80
FFFF80
FFFF80
FFFF80
ENDCHAR
STARTCHAR 2014
ENCODING 151
SWIDTH 504 0
DWIDTH 21 0
BBX 21 4 0 9
BITMAP
FFFFF8
FFFFF8
FFFFF8
FFFFF8
ENDCHAR
STARTCHAR 2018
ENCODING 145
SWIDTH 504 0
DWIDTH 21 0
BBX 9 13 6 17
BITMAP
0380
0F80
1F80
3F00
7800
7000
FC00
FE00
FE00
FF00
FE00
7E00
3C00
ENDCHAR
STARTCHAR 2019
ENCODING 146
SWIDTH 504 0
DWIDTH 21 0
BBX 9 13 6 17
BITMAP
0F00
3F80
3F80
3F80
3F80
3F80
1F80
0780
0F00
7F00
FE00
F800
6000
ENDCHAR
STARTCHAR 201A
ENCODING 130
SWIDTH 504 0
DWIDTH 21 0
BBX 10 13 5 -8
BITMAP
0F00
1F80
3F80
3FC0
3FC0
1F80
1F80
0780
0700
1F00
FE00
7800
6000
ENDCHAR
STARTCHAR 201C
ENCODING 147
SWIDTH 504 0
DWIDTH 21 0
BBX 18 12 2 17
BITMAP
0701C0
1F07C0
3F0FC0
7C1F00
701C00
E03800
F83E00
FC3F00
FC3F00
FC3F00
FC3F00
781E00
ENDCHAR
STARTCHAR 201D
ENCODING 148
SWIDTH 504 0
DWIDTH 21 0
BBX 19 12 1 18
BITMAP
0E0380
1F07C0
1F8FE0
3F8FE0
1F87E0
1F87C0
0701C0
0F03C0
1E0780
FC3F00
783E00
601800
ENDCHAR
STARTCHAR 201E
ENCODING 132
SWIDTH 504 0
DWIDTH 21 0
BBX 18 12 1 -8
BITMAP
0C0700
3E0F80
3F0FC0
3F0FC0
3F0FC0
1F07C0
0F0380
0E0380
3C1F00
FC7E00
F03C00
E03800
ENDCHAR
STARTCHAR 2020
ENCODING 134
SWIDTH 504 0
DWIDTH 21 0
BBX 15 31 3 -5
BITMAP
07C0
07C0
07C0
07C0
07C0
07C0
07C0
FFFE
FFFE
FFFE
FFFE
07C0
07C0
07C0
07C0
07C0
07C0
07C0
07C0
07C0
07C0
07C0
07C0
07C0
07C0
07C0
07C0
0380
0380
0380
0380
ENDCHAR
STARTCHAR 2021
ENCODING 135
SWIDTH 504 0
DWIDTH 21 0
BBX 16 31 2 -5
BITMAP
03E0
03E0
03E0
03E0
03E0
03E0
03E0
03E0
FFFF
FFFF
FFFF
FFFF
03E0
03E0
03E0
03E0
03E0
03E0
FFFF
FFFF
FFFF
FFFF
03E0
03E0
03E0
03E0
03C0
03C0
03C0
01C0
01C0
ENDCHAR
STARTCHAR 2022
ENCODING 149
SWIDTH 504 0
DWIDTH 21 0
BBX 11 12 5 9
BITMAP
1F00
3F80
7FC0
FFE0
FFE0
FFE0
FFE0
FFE0
FFE0
7FC0
3F80
1F00
ENDCHAR
STARTCHAR 2026
ENCODING 133
SWIDTH 504 0
DWIDTH 21 0
BBX 19 4 1 -1
BITMAP
70E1C0
F9F3E0
F9F3E0
70E1C0
ENDCHAR
STARTCHAR 2030
ENCODING 137
SWIDTH 504 0
DWIDTH 21 0
BBX 20 28 1 -1
BITMAP
380000
7E0000
FE0000
EE0000
C60000
C70000
C70060
C601F0
EE07C0
FE3F00
7CFC00
13F000
0FC000
3F0000
FC0000
F00000
CF0380
1F8FC0
1FCFE0
1DCEE0
39CC60
39DC60
39DC60
39CC60
19CEE0
1FCFE0
1F8FC0
0F0780
ENDCHAR
STARTCHAR 2039
ENCODING 139
SWIDTH 504 0
DWIDTH 21 0
BBX 10 19 6 2
BITMAP
0600
0780
0FC0
1F80
1F80
3F00
7F00
7E00
FE00
FC00
FE00
7E00
7F00
3F00
1F80
1F80
0FC0
0780
0600
ENDCHAR
STARTCHAR 203A
ENCODING 155
SWIDTH 504 0
DWIDTH 21 0
BBX 10 20 7 2
BITMAP
1000
7800
F800
FC00
7E00
7E00
3F00
3F00
1F80
1FC0
1FC0
1F80
3F00
3F00
7E00
7E00
FC00
F800
7800
1000
ENDCHAR
STARTCHAR 20AC
ENCODING 128
SWIDTH 504 0
DWIDTH 21 0
BBX 19 27 1 -1
BITMAP
003F80
01FFC0
03FFC0
07FFC0
07E080
0FC000
0F8000
1F8000
FFFF00
FFFF00
FFFF00
FFFF00
1F0000
1F0000
1F0000
FFFE00
FFFE00
FFFE00
FFFC00
1F8000
1F8000
0FC000
0FE040
07FFC0
03FFE0
01FFE0
007F80
ENDCHAR
STARTCHAR 2122
ENCODING 153
SWIDTH 504 0
DWIDTH 21 0
BBX 19 11 1 15
BITMAP
FF71C0
FF71C0
3879C0
387BC0
387BE0
386FE0
386EE0
3866E0
3860E0
38E060
38E060
ENDCHAR
ENDFONT
